<?xml version="1.0" standalone="no"?>
<!DOCTYPE svg PUBLIC "-//W3C//DTD SVG 1.1//EN" "http://www.w3.org/Graphics/SVG/1.1/DTD/svg11.dtd" >
<svg xmlns="http://www.w3.org/2000/svg" xmlns:xlink="http://www.w3.org/1999/xlink" version="1.1">
<metadata>
Created by FontForge 20190801 at Fri Mar  5 15:59:00 2021
 By Cynthia Sanchez
</metadata>
<defs>
<font id="eos-icons-outlined" horiz-adv-x="512" >
  <font-face 
    font-family="eos-icons-outlined"
    font-weight="400"
    font-stretch="normal"
    units-per-em="512"
    panose-1="2 0 5 3 0 0 0 0 0 0"
    ascent="448"
    descent="-64"
    bbox="-0.595506 -64 512 448"
    underline-thickness="25"
    underline-position="-50"
    unicode-range="U+005F-F186"
  />
<missing-glyph horiz-adv-x="187" 
d="M17 0v341h136v-341h-136zM34 17h102v307h-102v-307z" />
    <glyph glyph-name="abstract_incomplete" unicode="abstract_incomplete" horiz-adv-x="426" 
d="M421 213q5 -10 5 -21v0q0 -11 -5 -21l-86 -149q-3 -6 -9 -11t-13.5 -8t-14.5 -3h-170q-10 0 -21 6.5t-16 15.5l-33 57l-17 29l-35 63q-6 10 -6 21t6 21l35 63l17 29l33 57q5 9 16 15.5t21 6.5h170q11 0 21.5 -6.5t15.5 -15.5zM327 86zM390 192l-88 149h-176l-26 -43
q3 1 7 1q44 0 75 -31.5t31 -75.5v-2q1 -43 32.5 -74t74.5 -31l7 1z" />
    <glyph glyph-name="abstract_instance" unicode="abstract_instance" horiz-adv-x="426" 
d="M421 213q5 -10 5 -21t-5 -21l-86 -150q-5 -8 -15.5 -14.5t-21.5 -6.5h-170q-11 0 -21.5 6.5t-15.5 14.5l-85 150q-6 10 -6 21t6 21l85 150q3 5 9 10t13.5 8t14.5 3h170q11 0 21.5 -6t15.5 -15zM298 43l86 149l-86 149h-170l-86 -149l86 -149h170zM170 192q0 18 12.5 30.5
t30.5 12.5t30.5 -12.5t12.5 -30.5t-12.5 -30.5t-30.5 -12.5t-30.5 12.5t-12.5 30.5z" />
    <glyph glyph-name="abstract" unicode="abstract" horiz-adv-x="427" 
d="M421 213q6 -10 6 -21t-6 -21l-85 -150q-5 -8 -16 -14.5t-21 -6.5h-171q-10 0 -21 6.5t-16 14.5l-85 150q-6 10 -6 21t6 21l85 150q5 8 16 14.5t21 6.5h171q10 0 21 -6.5t16 -14.5zM299 43l85 149l-85 149h-171l-85 -149l85 -149h171z" />
    <glyph glyph-name="action_chains" unicode="action_chains" horiz-adv-x="470" 
d="M342 21.5q0 26.5 18.5 45t45 18.5t45.5 -18.5t19 -45t-19 -45.5t-45.5 -19t-45 19t-18.5 45.5zM363 384q44 0 75 -31.5t31 -75.5t-31 -75t-75 -31h-68q-6 -18 -24 -30t-36 -12t-36 12t-24 30h-68q-27 0 -45.5 -19t-18.5 -45.5t18.5 -45t45.5 -18.5h128v64l85 -86l-85 -85
v64h-128q-44 0 -75.5 31.5t-31.5 75.5t31.5 75t75.5 31h68q6 18 23.5 30t36 12t36.5 -12t24 -30h68q26 0 45 19t19 45.5t-19 45t-45 18.5h-239q-6 -17 -23.5 -29.5t-36.5 -12.5q-26 0 -45 18.5t-19 45t19 45.5t45 19q12 0 24.5 -6t22 -15.5t13.5 -21.5h239z" />
    <glyph glyph-name="activate_subscriptions" unicode="activate_subscriptions" horiz-adv-x="427" 
d="M43 277v43h341v-43h-341zM85 363v42h256v-42h-256zM384 235q18 0 30.5 -12.5t12.5 -30.5v-170q0 -18 -12.5 -30.5t-30.5 -12.5h-341q-18 0 -30.5 12.5t-12.5 30.5v170q0 12 5.5 21.5t15.5 15.5t22 6h341zM384 21v171h-341v-171h341zM192 43v42h-43v43h43v43h43v-43h42
v-43h-42v-42h-43z" />
    <glyph glyph-name="admin" unicode="admin" horiz-adv-x="427" 
d="M213 -43q-89 20 -151 94t-62 162v128l213 86l214 -86v-128q0 -88 -62 -162t-152 -94zM43 320v-107q1 -71 51 -133.5t119 -79.5q46 11 84.5 44t62 78t24.5 91v107l-171 64zM160 267q0 22 15.5 37.5t37.5 15.5t38 -15.5t16 -37.5t-16 -38t-38 -16t-37.5 16t-15.5 38z
M107 128q0 27 37 45.5t69.5 18.5t69.5 -18.5t37 -45.5q-14 -26 -45.5 -45t-61.5 -19q-29 0 -60.5 19t-45.5 45z" />
    <glyph glyph-name="ai_operator" unicode="ai_operator" 
d="M178 341l42 -170h-22l-10 40h-50l-9 -40h-22l43 170h28zM141 228h44l-21 93h-1zM240 171v170h21v-170h-21zM244 149q2 -22 12 -43v-42h-43v43h-42v-43h-43v43h-43q-17 0 -29.5 12.5t-12.5 29.5v43h-43v43h43v42h-43v43h43v43q0 17 12.5 29.5t29.5 12.5h43v43h43v-43h42
v43h43v-43h43q17 0 29.5 -12.5t12.5 -29.5v-43h43v-43q-11 2 -22 2q-34 0 -63 -18v102h-214v-214h159zM288 160q0 31 22 53t53 22t52.5 -22t21.5 -53t-21.5 -53t-52.5 -22t-53 22t-22 53zM362.5 43q27.5 0 61 -8t61 -26t27.5 -41v-32h-299v32q0 23 28 41t61 26t60.5 8z" />
    <glyph glyph-name="ai" unicode="ai" horiz-adv-x="384" 
d="M384 213h-43v-42h43v-43h-43v-43q0 -17 -12.5 -29.5t-29.5 -12.5h-43v-43h-43v43h-42v-43h-43v43h-43q-17 0 -29.5 12.5t-12.5 29.5v43h-43v43h43v42h-43v43h43v43q0 17 12.5 29.5t29.5 12.5h43v43h43v-43h42v43h43v-43h43q17 0 29.5 -12.5t12.5 -29.5v-43h43v-43z
M299 85v214h-214v-214h214zM178 277l42 -170h-22l-10 40h-49l-10 -40h-22l43 170h28zM141 164h44l-21 93h-1zM240 107v170h21v-170h-21z" />
    <glyph glyph-name="api" unicode="api" 
d="M156 256l47 -128h-35l-9 26h-41l-9 -26h-34l46 128h35zM126 175h25l-12 35zM315 256q13 0 22.5 -9t9.5 -22v-1v-21v-1q0 -13 -9.5 -22t-22.5 -9h-43v-43h-32v128h75zM315 203v21h-43v-21h43zM384 128v128h32v-128h-32zM469 320h-426v-256h426v256zM469 363q12 0 22 -6
t15.5 -15.5t5.5 -21.5v-256q0 -18 -12.5 -30.5t-30.5 -12.5h-426q-18 0 -30.5 12.5t-12.5 30.5v256q0 18 12.5 30.5t30.5 12.5h426z" />
    <glyph glyph-name="application_incomplete" unicode="application_incomplete" horiz-adv-x="469" 
d="M0 384q0 18 12.5 30.5t30.5 12.5h384q17 0 29.5 -12.5t12.5 -30.5v-43h-469v43zM64 363q6 0 11 2.5t7.5 7.5t2.5 11q0 9 -6 15t-15 6t-15 -6t-6 -15t6 -15t15 -6zM128 363q9 0 15 6t6 15q0 6 -2.5 11t-7.5 7.5t-11 2.5q-9 0 -15 -6t-6 -15t6 -15t15 -6zM235 235v-86h85
q0 -35 -25 -60t-60.5 -25t-60.5 25t-25 60.5t25 60.5t61 25zM0 320h469v-299q0 -17 -12.5 -29.5t-29.5 -12.5h-384q-18 0 -30.5 12.5t-12.5 29.5v299zM427 21v256h-384v-256h384z" />
    <glyph glyph-name="application_instance" unicode="application_instance" horiz-adv-x="469" 
d="M0 320h469v-299q0 -17 -12.5 -29.5t-29.5 -12.5h-384q-18 0 -30.5 12.5t-12.5 29.5v299zM171 43l149 96l-149 96v-96v-96zM0 384q0 18 12.5 30.5t30.5 12.5h384q17 0 29.5 -12.5t12.5 -30.5v-43h-469v43zM64 363q9 0 15 6t6 15t-6 15t-15 6t-15 -6t-6 -15t6 -15t15 -6z
M128 363q9 0 15 6t6 15t-6 15t-15 6t-15 -6t-6 -15t6 -15t15 -6z" />
    <glyph glyph-name="application_window" unicode="application_window" horiz-adv-x="469" 
d="M0 384q0 18 12.5 30.5t30.5 12.5h384q17 0 29.5 -12.5t12.5 -30.5v-43h-469v43zM64 363q4 0 8 1.5t7 4.5t4.5 7t1.5 8q0 9 -6 15t-15 6t-15 -6t-6 -15v0q0 -9 6 -15t15 -6zM128 363q9 0 15 6t6 15q0 6 -2.5 11t-7.5 7.5t-11 2.5q-9 0 -15 -6t-6 -15t6 -15t15 -6zM0 320
h469v-299q0 -17 -12.5 -29.5t-29.5 -12.5h-384q-18 0 -30.5 12.5t-12.5 29.5v299zM427 21v256h-384v-256h384z" />
    <glyph glyph-name="application" unicode="application" horiz-adv-x="469" 
d="M0 384q0 18 12.5 30.5t30.5 12.5h384q17 0 29.5 -12.5t12.5 -30.5v-43h-469v43zM64 363q9 0 15 6t6 15t-6 15t-15 6t-15 -6t-6 -15t6 -15t15 -6zM128 363q9 0 15 6t6 15t-6 15t-15 6t-15 -6t-6 -15t6 -15t15 -6zM0 320h469v-299q0 -17 -12.5 -29.5t-29.5 -12.5h-384
q-18 0 -30.5 12.5t-12.5 29.5v299zM173 122l-28 27l28 28l28 28l-15 15l-15 15l-43 -43l-43 -43l43 -42l43 -43l15 15l15 15zM341 107l43 42l-43 43l-42 43l-15 -15l-15 -15l28 -28l27 -28l-27 -27l-28 -28l15 -15l15 -15z" />
    <glyph glyph-name="autoinstallation" unicode="autoinstallation" horiz-adv-x="428" 
d="M180 96l66 -66q-26 -8 -54 -8q-79 0 -135.5 56t-56.5 136t56.5 136t135.5 56q76 0 132 -53.5t60 -128.5h-95v-128h-109zM139 214q0 -22 15.5 -37.5t38 -15.5t38 15.5t15.5 37.5t-15.5 37.5t-38 15.5t-38 -15.5t-15.5 -37.5zM428 64l-86 -85l-85 85h64v128h43v-128h64z
" />
    <glyph glyph-name="background_tasks" unicode="background_tasks" 
d="M128 352v32h192v-32h-192zM64 288v32h32v-32h-32zM64 352v32h32v-32h-32zM64 224v32h32v-32h-32zM96 192v-32h-53q-18 0 -30.5 12.5t-12.5 30.5v202q0 18 12.5 30.5t30.5 12.5h298q18 0 30.5 -12.5t12.5 -30.5v-85h-32v96h-320v-224h64zM469 288q18 0 30.5 -12.5
t12.5 -30.5v-202q0 -18 -12.5 -30.5t-30.5 -12.5h-117v-32h32v-32h-128v31h33v33h-118q-18 0 -30.5 12.5t-12.5 30.5v202q0 18 12.5 30.5t30.5 12.5h298zM480 32v224h-320v-224h320z" />
    <glyph glyph-name="bootstrapping" unicode="bootstrapping" horiz-adv-x="398" 
d="M7 -64v43h384v-43h-384zM199 192q52 0 91 -10.5t59.5 -27.5t32.5 -37.5t14 -41t1.5 -37.5t-3.5 -27l-3 -11h-384q-1 4 -3 11t-3.5 27t1.5 38t14.5 40t32 38t59.5 27t91 11zM7 448h384l-21 -278q-40 54 -171 54q-130 0 -171 -53zM92 384v-43h214v43h-214zM327 256v43h-256
v-43h256z" />
    <glyph glyph-name="branch" unicode="branch" horiz-adv-x="384" 
d="M384 341q0 -18 -12.5 -36t-30.5 -24v-68q0 -17 -12.5 -29.5t-29.5 -12.5h-214v-68q18 -6 30.5 -24t12.5 -37q0 -26 -19 -45t-45 -19t-45 19t-19 45q0 19 12.5 37t30.5 24v178q-18 6 -30.5 24t-12.5 37q0 26 19 45t45 19t45 -19t19 -45q0 -10 -3.5 -19.5t-9 -17.5
t-13.5 -14.5t-17 -9.5v-68h214v68q-18 6 -30.5 24t-12.5 37q0 26 19 45t45 19t45 -19t19 -45v-1z" />
    <glyph glyph-name="cleanup" unicode="cleanup" horiz-adv-x="427" 
d="M384 128v-43h-341v43h106q0 17 12.5 29.5t30.5 12.5l88 236l37 -14l-83 -222h1q18 0 30 -12.5t12 -29.5h107zM384 64l43 -85h-43h-341h-43l43 85h341z" />
    <glyph glyph-name="cloud_controller_manager" unicode="cloud_controller_manager" 
d="M192 235h171v-43h-171v43zM512 235v-43h-64v-43h-43v128h43v-42h64zM192 21h171v-42h-171v42zM512 21v-42h-64v-43h-43v128h43v-43h64zM512 85h-171v43h171v-43zM192 85v43h64v43h43v-128h-43v42h-64zM149 299v-192h-21q-53 0 -90.5 37.5t-37.5 90.5q0 47 33.5 84.5
t80.5 42.5q19 35 60.5 60.5t81.5 25.5q54 0 100 -38t57 -91q30 -2 55 -20h-319z" />
    <glyph glyph-name="cluster_role_binding" unicode="cluster_role_binding" horiz-adv-x="448" 
d="M64 235h107v-43h-107v43zM140 -21h-97q-18 0 -30.5 12.5t-12.5 29.5v299q0 18 12.5 30.5t30.5 12.5h89q3 8 9.5 16t14.5 14t17.5 9t18.5 3q19 0 36.5 -12.5t23.5 -29.5h89q18 0 30.5 -12.5t12.5 -30.5v-130q-11 2 -21 2h-22v64h-298v-85h121q-25 -17 -40 -43h-81v-85h66
q6 -37 31 -64zM171 341.5q0 -8.5 6 -15t15 -6.5t15 6.5t6 15t-6 15t-15 6.5t-15 -6.5t-6 -15zM320 213.5q0 -8.5 -6.5 -15t-15 -6.5t-15 6.5t-6.5 15t6.5 15t15 6.5t15 -6.5t6.5 -15zM64 64v43h50q-7 -21 -7 -43h-43zM256 213.5q0 -8.5 -6.5 -15t-15 -6.5t-15 6.5t-6.5 15
t6.5 15t15 6.5t15 -6.5t6.5 -15zM277 21v-42h-42q-36 0 -61 25t-25 60t25 60t61 25h42v-42h-42q-18 0 -30.5 -12.5t-12.5 -30.5t12.5 -30.5t30.5 -12.5h42zM448 64q0 -35 -25 -60t-60 -25h-43v42h43q17 0 29.5 12.5t12.5 30.5t-12.5 30.5t-29.5 12.5h-43v42h43
q23 0 42.5 -11.5t31 -31t11.5 -42.5zM341 43h-85v42h85v-42z" />
    <glyph glyph-name="cluster_role" unicode="cluster_role" horiz-adv-x="384" 
d="M341 363q9 0 17 -3.5t13.5 -9.5t9 -13.5t3.5 -16.5v-299q0 -17 -12.5 -29.5t-30.5 -12.5h-298q-18 0 -30.5 12.5t-12.5 29.5v299q0 18 12.5 30.5t30.5 12.5h89q6 17 23.5 29.5t36.5 12.5t36.5 -12.5t23.5 -29.5h89zM192 363q-9 0 -15 -6.5t-6 -15t6 -15t15 -6.5t15 6.5
t6 14.5q0 6 -2.5 11t-7.5 8t-11 3zM341 43v85h-298v-85h298zM341 171v85h-298v-85h298zM277 213q0 9 6.5 15.5t15.5 6.5t15 -6.5t6 -15.5t-6 -15t-15 -6q-6 0 -11 3t-8 8t-3 10zM213 213q0 9 6.5 15.5t15.5 6.5t15 -6.5t6 -15.5t-6 -15t-15 -6q-6 0 -11 3t-8 8t-3 10z
M213 85q0 9 6.5 15.5t15.5 6.5t15 -6.5t6 -15.5t-6 -15t-15 -6t-15.5 6t-6.5 15zM277 85q0 9 6.5 15.5t15.5 6.5t15 -6.5t6 -15.5t-6 -15t-15 -6t-15.5 6t-6.5 15zM64 192v43h107v-43h-107zM64 64v43h107v-43h-107z" />
    <glyph glyph-name="collocation" unicode="collocation" horiz-adv-x="427" 
d="M384 405q18 0 30.5 -12.5t12.5 -29.5v-342q0 -17 -12.5 -29.5t-30.5 -12.5h-341q-18 0 -30.5 12.5t-12.5 29.5v342q0 17 12.5 29.5t30.5 12.5h341zM384 21v342h-341v-342h341zM118 64h1q-22 0 -38 15.5t-16 37.5t16 38t38 16l50 87q-9 14 -9 30q0 22 15.5 37.5t38 15.5
t38 -15.5t15.5 -37.5q0 -16 -9 -30l51 -87h1q22 0 38 -16t16 -38t-16 -37.5t-38 -15.5q-11 0 -22.5 5.5t-19.5 15.5t-10 22h-87q-4 -18 -19.5 -30.5t-33.5 -12.5zM185 243l-44 -78q10 -4 18.5 -15t11.5 -22h86q3 11 11.5 22t18.5 15l-45 78q-13 -8 -28.5 -8t-28.5 8z" />
    <glyph glyph-name="commit" unicode="commit" horiz-adv-x="427" 
d="M427 213v-42h-131q-7 -27 -31 -45.5t-51.5 -18.5t-51.5 18.5t-31 45.5h-131v42h131q7 27 31 45.5t51.5 18.5t51.5 -18.5t31 -45.5h131z" />
    <glyph glyph-name="compare_states" unicode="compare_states" horiz-adv-x="469" 
d="M427 103q17 -6 29.5 -24t12.5 -37q0 -26 -18.5 -45t-45 -19t-45.5 19t-19 45q0 13 6 25.5t15.5 22t21.5 13.5v217h-110l34 -34l-31 -30l-55 55l-30 30l30 31l55 55l31 -31l-34 -33h110q9 0 16.5 -3.5t13.5 -9.5t9.5 -13.5t3.5 -16.5v-217zM247 73l30 -30l-30 -31l-55 -55
l-30 31l34 33h-111q-17 0 -29.5 12.5t-12.5 30.5v217q-18 6 -30.5 24t-12.5 37q0 26 19 45t45 19t45 -19t19 -45q0 -19 -12.5 -37t-30.5 -24v-217h111l-34 34l30 30z" />
    <glyph glyph-name="config_map" unicode="config_map" horiz-adv-x="466" 
d="M206 163q2 -1 2 -4q0 -1 -1 -2l-21 -37q-2 -3 -5 -3h-2l-26 11q-9 -6 -18 -10l-4 -29q-1 -4 -6 -4h-42q-5 0 -6 4l-4 29q-10 3 -18 10l-26 -11h-2q-3 0 -5 3l-21 37q-1 1 -1 2q0 3 2 4l23 18q-1 5 -1 10.5t1 10.5l-23 18q-2 1 -2 4q0 1 1 3l21 36q2 3 5 3h2l26 -11
q9 6 18 11l4 28q1 4 6 4h42q5 0 5 -4l4 -28q10 -4 19 -11l26 11h2q3 0 5 -3l21 -36q1 -2 1 -3q0 -3 -2 -4l-23 -18q1 -5 1 -10q0 -6 -1 -11zM104 160v0q13 0 22.5 9t9.5 22.5t-9.5 23t-22.5 9.5t-22.5 -9.5t-9.5 -23t9.5 -22.5t22.5 -9zM402 448l64 -64v-128
q0 -9 -6.5 -15.5t-15.5 -6.5h-128q-6 0 -10.5 3t-7.5 8t-3 11v85h-170v-21h-43v64h213v42q0 9 6.5 15.5t14.5 6.5h86zM391 373h59l-59 59v-59zM402 149l64 -64v-128q0 -9 -6.5 -15t-15.5 -6h-128q-9 0 -15 6t-6 15v43h-213v64h43v-22h170v86q0 9 6.5 15t14.5 6h86zM391 74
h59l-59 59v-59z" />
    <glyph glyph-name="configuration_file" unicode="configuration_file" horiz-adv-x="341" 
d="M207 111q1 -1 1 -2v-2l-13 -21q-1 -2 -3 -2h-1l-16 7q-5 -4 -10 -7l-3 -16q0 -3 -3 -3h-25q-3 0 -3 3l-2 16q-6 3 -11 7l-16 -7h-1q-2 0 -3 2l-12 21q-1 1 -1 2t2 2l13 11q-1 3 -1 6t1 6l-13 11q-2 1 -2 2t1 2l12 21q1 2 3 2h1l16 -7q5 4 11 7l2 16q0 3 3 3h25q3 0 3 -3
l3 -16q5 -3 10 -7l16 7h1q2 0 3 -2l12 -21q1 -1 1 -2t-1 -2l-14 -11q1 -3 1 -6t-1 -6zM147 109v0q7 0 12.5 5.5t5.5 13.5t-5.5 13.5t-13 5.5t-13 -5.5t-5.5 -13.5t5.5 -13.5t13.5 -5.5zM213 405l128 -128v-256q0 -11 -5.5 -21t-15.5 -15.5t-21 -5.5h-256q-12 0 -22 5.5
t-15.5 15.5t-5.5 21v342q0 17 12.5 29.5t30.5 12.5h170zM299 21v235h-107v107h-149v-342h256z" />
    <glyph glyph-name="constraint" unicode="constraint" horiz-adv-x="427" 
d="M405 128q9 -1 15 -7t7 -14v-86q-1 -8 -7 -14t-15 -7h-106q-4 0 -8 2t-7 5t-4.5 6.5t-2.5 7.5v86q1 8 7 14t15 7v32q0 22 15.5 37.5t37.5 15.5t37.5 -15.5t15.5 -37.5v-32zM384 128v32q0 13 -9.5 22.5t-22.5 9.5t-22.5 -9.5t-9.5 -22.5v-32h64zM427 341h-427v43h427v-43z
M427 256h-427v43h427v-43zM235 171h-235v42h235v-42zM235 85h-235v43h235v-43zM235 0h-235v43h235v-43z" />
    <glyph glyph-name="container" unicode="container" horiz-adv-x="427" 
d="M384 235q18 0 30.5 -12.5t12.5 -30.5v-171q0 -17 -12.5 -29.5t-30.5 -12.5h-341q-18 0 -30.5 12.5t-12.5 29.5v171q0 18 12.5 30.5t30.5 12.5h42l103 74q-17 12 -17 32h21q0 -8 6.5 -14.5t15 -6.5t15 6.5t6.5 14.5q0 6 -3 11t-8 8t-11 3v42h22v-27q8 -5 14.5 -16t6.5 -21
q0 -20 -17 -32l102 -74h43zM213 299l-85 -64h171zM384 21v171h-341v-171h341zM256 43q-9 0 -15 6t-6 15v85q0 9 6 15.5t15 6.5q6 0 11 -3t7.5 -8t2.5 -11v-85q0 -9 -6 -15t-15 -6zM341.5 43q-8.5 0 -15 6t-6.5 15v85q0 9 6.5 15.5t15 6.5t15 -6.5t6.5 -15.5v-85
q0 -9 -6.5 -15t-15 -6zM85.5 43q-8.5 0 -15 6t-6.5 15v85q0 9 6.5 15.5t15 6.5t15 -6.5t6.5 -15.5v-85q0 -9 -6.5 -15t-15 -6zM170.5 43q-8.5 0 -15 6t-6.5 15v85q0 9 6.5 15.5t15 6.5t15 -6.5t6.5 -15.5v-85q0 -9 -6.5 -15t-15 -6z" />
    <glyph glyph-name="content_deleted" unicode="content_deleted" horiz-adv-x="405" 
d="M341 43v85h43v-85q0 -18 -12.5 -30.5t-30.5 -12.5h-298q-18 0 -30.5 12.5t-12.5 30.5v298q0 18 12.5 30.5t30.5 12.5h128v-43h-128v-298h298zM256 341h128v-128q0 -8 -6.5 -14.5t-14.5 -6.5h-86q-8 0 -14.5 6.5t-6.5 14.5v128zM405 384v-21h-170v21h42l13 21h60l13 -21
h42z" />
    <glyph glyph-name="content_lifecycle_management" unicode="content_lifecycle_management" horiz-adv-x="427" 
d="M85 256v43h171v-43h-171zM85 171v42h256v-42h-256zM85 85v43h64v-43h-64zM256 384l-64 -64v43h-149v-342h85v-42h-85q-18 0 -30.5 12.5t-12.5 29.5v342q0 17 12.5 29.5t30.5 12.5h149v43zM171 0l64 64v-43h149v342h-85v42h85q18 0 30.5 -12.5t12.5 -29.5v-342
q0 -17 -12.5 -29.5t-30.5 -12.5h-149v-43z" />
    <glyph glyph-name="content_modified" unicode="content_modified" horiz-adv-x="405" 
d="M396 371q9 -9 9 -22.5t-9 -22.5l-113 -113h-70v70l113 113q9 9 22.5 9t22.5 -9zM268 246l74 74l-22 22l-74 -74v-22h22zM341 43v128h43v-128q0 -18 -12.5 -30.5t-30.5 -12.5h-298q-18 0 -30.5 12.5t-12.5 30.5v298q0 18 12.5 30.5t30.5 12.5h128v-43h-128v-298h298z" />
    <glyph glyph-name="content_new" unicode="content_new" horiz-adv-x="405" 
d="M405 341v-42h-64v-64h-42v64h-64v42h64v64h42v-64h64zM341 43v128h43v-128q0 -18 -12.5 -30.5t-30.5 -12.5h-298q-18 0 -30.5 12.5t-12.5 30.5v298q0 18 12.5 30.5t30.5 12.5h128v-43h-128v-298h298z" />
    <glyph glyph-name="counting" unicode="counting" 
d="M43 -21v426h42v-426h-42zM43 363h426v-43h-426v43zM427 -21v426h42v-426h-42zM128 341q0 18 12.5 30.5t30 12.5t30 -12.5t12.5 -30t-12.5 -30t-29.5 -12.5q-9 0 -17 3t-13.5 9t-9 14t-3.5 16zM43 235h426v-43h-426v43zM171 213.5q0 17.5 12.5 30t30 12.5t30 -12.5
t12.5 -30t-12.5 -30t-30 -12.5t-30 12.5t-12.5 30zM299 213.5q0 17.5 12.5 30t30 12.5t30 -12.5t12.5 -30t-12.5 -30t-30 -12.5t-30 12.5t-12.5 30zM43 107h426v-43h-426v43zM0 0h512v-43h-512v43zM128 85q0 18 12.5 30.5t30 12.5t30 -12.5t12.5 -30t-12.5 -30t-29.5 -12.5
q-7 0 -13.5 2t-12 6t-9.5 9t-6 11.5t-2 13.5z" />
    <glyph glyph-name="critical_bug" unicode="critical_bug" horiz-adv-x="341" 
d="M149 85v43h43v-43h-43zM149 149v107h43v-107h-43zM341 277v-42h-44q2 -11 2 -22v-21h42v-43h-42v-21q0 -11 -2 -21h44v-43h-60q-15 -26 -47.5 -45t-63 -19t-63 19t-47.5 45h-60v43h45q-2 10 -2 21v21h-43v43h43v21q0 11 2 22h-45v42h60q15 26 39 42l-35 35l30 30l47 -46
q14 3 29.5 3t30.5 -3l46 46l30 -30l-34 -35q24 -16 38 -42h60zM256 192v21q0 8 -1 15l-3 14l-8 14q-9 17 -26 28l-13 9l-14 3q-10 3 -20.5 3t-19.5 -3l-16 -4l-12 -8q-16 -11 -26 -28l-8 -14l-2 -14q-2 -7 -2 -15v-85q0 -8 2 -15l2 -14l8 -14q7 -11 19 -21t26.5 -15.5
t28.5 -5.5q20 0 41.5 12.5t31.5 29.5l8 14l3 14q1 7 1 15v64z" />
    <glyph glyph-name="cronjob" unicode="cronjob" horiz-adv-x="448" 
d="M192 384v42h128v-42h-128zM406 290q17 -22 29.5 -57t12.5 -63q0 -79 -56.5 -135.5t-135.5 -56.5t-135.5 56.5t-56.5 135.5h-64l85 86l86 -86h-64q0 -62 43.5 -105.5t105.5 -43.5q26 0 57 13t49 31l-106 106v149q-20 -1 -45.5 -9t-41.5 -19l-30 31q21 16 55.5 27.5
t61.5 11.5q28 0 63 -12t57 -30l30 31l31 -30z" />
    <glyph glyph-name="csv_file" unicode="csv_file" horiz-adv-x="448" 
d="M298 20l43 1v-43h-299q-17 0 -29.5 12.5t-12.5 30.5v341q0 18 12.5 30.5t30.5 12.5h170l43 -42l42 -42l43 -44v-42h-43v21h-107v107h-149v-343h256zM411 64h-32l-38 128h32l22 -73l21 73h32zM171 192q8 0 14.5 -6.5t6.5 -15.5v-21h-32v11h-43v-64h43v10h32v-21
q0 -9 -6.5 -15t-14.5 -6h-64q-9 0 -15.5 6t-6.5 15v85q0 9 6.5 15.5t15.5 6.5h64zM320 160h-75v-16h54q8 0 14.5 -6.5t6.5 -15.5v-37q0 -9 -6.5 -15t-14.5 -6h-86v32h75v16h-53q-9 0 -15.5 6t-6.5 15v37q0 9 6.5 15.5t15.5 6.5h85v-32z" />
    <glyph glyph-name="daemon_set" unicode="daemon_set" horiz-adv-x="469" 
d="M43 21h170h171v-42h-341q-18 0 -30.5 12.5t-12.5 29.5v299h43v-299zM348 257q6 -15 6 -31q0 -32 -22.5 -54.5t-54 -22.5t-54 22.5t-22.5 54.5q0 16 6 31l-2 4l-2 4q-2 7 -2 15q0 12 8 24t19 16h1q-6 -8 -7 -18v-6q0 -7 2 -14v0q11 10 24 15q14 6 29 6t29 -6q14 -5 24 -15
v0q3 7 3 15q0 13 -6 23v0q16 -6 23 -23q4 -8 4 -17q0 -8 -3 -15q0 -2 -1 -4zM307 260q-5 0 -9 -3.5t-4 -9t4 -9t9 -3.5q4 0 7 1.5t4.5 4.5t1.5 7q0 5 -4 8.5t-9 3.5zM247 260v0q-5 0 -8.5 -3.5t-3.5 -9t3.5 -9t9 -3.5t9 3.5t3.5 9t-3.5 9t-9.5 3.5zM277.5 179q14.5 0 26.5 8
q12 9 17 22h-87q5 -13 17 -22q12 -8 26.5 -8zM456 392q13 -12 13 -29v-256q0 -17 -12.5 -29.5t-29.5 -13.5h-299q-18 0 -30 13q-13 12 -13 30v256q0 17 13 29q12 13 30 13h299q17 0 29 -13zM427 107v256h-299v-256h299z" />
    <glyph glyph-name="daemon" unicode="daemon" horiz-adv-x="384" 
d="M267 256q13 0 22 -9q10 -10 10 -23t-10 -22q-9 -10 -22 -10q-14 0 -23 10q-9 9 -9 22v0q0 13 9 23q9 9 22 9h1zM117 256q14 0 23 -9.5t9 -22.5t-9 -22.5t-22.5 -9.5t-23 9.5t-9.5 22.5q0 9 4.5 16t12 11.5t15.5 4.5zM320 405q33 -23 55 -56q9 -21 9 -44q0 -20 -7 -38
l-4 -10q11 -32 11 -66q0 -79 -56.5 -135.5t-135.5 -56.5t-135.5 56.5t-56.5 135.5q0 34 11 66l-4 10q-7 18 -7 38q0 23 10 44q21 33 54 56q-10 -21 -10 -45q-1 -7 -1 -13q0 -10 2 -21q23 24 63.5 41t73.5 17q22 0 48 -7.5t50 -21t39 -29.5q2 11 2 23v11q-4 23 -11 45z
M192 43q62 0 105.5 43.5t43.5 105.5t-43.5 105.5t-105.5 43.5t-105.5 -43.5t-43.5 -105.5t43.5 -105.5t105.5 -43.5zM85 149h214q-14 -26 -44.5 -45t-60.5 -19h-2h-2q-30 0 -60.5 19t-44.5 45z" />
    <glyph glyph-name="data_mining" unicode="data_mining" horiz-adv-x="427" 
d="M265 263l-93 53l-19 10l-10 -18l-21 -37l-85 -149l-37 22l85 148l21 37l10 18l-74 43l22 37l74 -43l10 19l37 -21l-10 -19l18 -10q23 -13 43.5 -39.5t28.5 -50.5zM171 235h256v-64h-256v64zM405 192v21h-85v-21h85zM171 128h256v-64h-256v64zM405 85v22h-85v-22h85z
M171 21h256v-64h-256v64zM405 -21v21h-85v-21h85z" />
    <glyph glyph-name="data_scientist" unicode="data_scientist" 
d="M382 -54v-10h-19v7q0 11 3 18.5t6.5 10.5t9.5 5t8 2h5h4.5t7.5 -2t9.5 -5.5t7 -10.5t3.5 -18v-7h-19v10q0 20 -13 19q-13 0 -13 -19zM448 327q0 11 3.5 18.5t7 10.5t9.5 5t7.5 2h4.5q2 0 3.5 -0.5t6 -1t7.5 -3t7 -6t6 -10t2 -15.5v-14q0 -11 -3.5 -18.5t-7 -10.5t-9.5 -5
t-7.5 -2h-4.5q-4 0 -7.5 1t-10 3.5t-10.5 10.5t-4 21v14zM493 330q0 20 -13 19q-13 0 -13 -19v-19q0 -20 13 -20t13 20v19zM448 178q0 9 2 15.5t6 10t7 6t7.5 3t5.5 0.5h4h4.5t7.5 -1.5t9.5 -5t7 -11t3.5 -17.5v-15q0 -8 -2 -15t-6 -10.5t-7 -5.5t-7.5 -3t-5.5 -1h-4h-4.5
t-7.5 2t-9.5 5t-7 10.5t-3.5 17.5v15zM493 180q0 20 -13 20t-13 -20v-19q0 -20 13 -20t13 20v19zM448 29q0 10 3.5 17.5t7 10.5t9.5 5t7.5 2h4.5h4.5t7.5 -2t9.5 -5t7 -10.5t3.5 -17.5v-15q0 -10 -3.5 -17.5t-7 -11t-9.5 -5t-7.5 -1.5h-4.5h-4.5t-7.5 1.5t-9.5 5t-7 11
t-3.5 17.5v15zM493 31q0 20 -13 20t-13 -20v-19q0 -20 13 -20t13 20v19zM363 242q0 9 2 15.5t5.5 10t6.5 6t8 3t6 0.5h4h4.5t7.5 -1.5t9.5 -5t7 -11t3.5 -17.5v-15q0 -10 -3.5 -17.5t-7 -10.5t-9.5 -5t-7.5 -2h-4.5h-5t-7.5 2t-9.5 5t-7 10.5t-3 17.5v15zM408 244
q0 20 -13 20t-13 -20v-19q0 -20 13 -20t13 20v19zM363 414v-14l21 5v-64h21v86zM363 115v-13l21 5v-64h21v85zM171 235q-18 0 -30.5 -12.5t-12.5 -30.5t12.5 -30.5t30 -12.5t30 12.5t12.5 30.5q0 12 -5.5 21.5t-15.5 15.5t-21 6zM171 43q-41 0 -83 -15.5t-45 -27.5v-21h256
v21q-2 6 -14 13t-30 14t-41 11.5t-43 4.5zM170.5 277q35.5 0 60.5 -25t25 -60t-25 -60t-60 -25q-24 0 -43.5 11.5t-31 31t-11.5 42.5q0 35 25 60t60.5 25zM170.5 85q31.5 0 69.5 -9t69.5 -29.5t31.5 -46.5v-64h-341v64q0 26 31.5 46.5t69.5 29.5t69.5 9z" />
    <glyph glyph-name="deploy" unicode="deploy" 
d="M512 21v-43h-512v43h85v21q-17 0 -29.5 12.5t-12.5 30.5v213q0 12 5.5 21.5t15.5 15.5t21 6h43v-43h-43v-213h342v213h-43v43h43q17 0 29.5 -12.5t12.5 -30.5v-213q0 -18 -12.5 -30.5t-29.5 -12.5v-21h85zM320 149h-43v-43h-42v43h-43l64 64zM341 319.5
q0 -35.5 -25 -60.5t-60 -25t-60 25t-25 60.5t25 60.5t60 25t60 -25t25 -60.5zM247 256v12q-7 0 -12 5t-5 12v9l-37 37q-1 -6 -1 -12q0 -23 16 -41.5t39 -21.5zM304 278q16 18 16 42q0 17 -11.5 34t-27.5 24q0 -4 -2.5 -7.5t-6 -6t-8.5 -2.5h-17v-17q0 -8 -8 -8h-17v-18h51
q8 0 8 -8v-26h9q9 0 14 -7z" />
    <glyph glyph-name="diff_modified" unicode="diff_modified" horiz-adv-x="384" 
d="M346 384q15 0 26.5 -11.5t11.5 -26.5v-308q0 -15 -11.5 -26.5t-26.5 -11.5h-308q-15 0 -26.5 11.5t-11.5 26.5v308q0 15 11.5 26.5t26.5 11.5h308zM341 43v298h-298v-298h298zM107 192q0 35 25 60t60 25t60 -25t25 -60t-25 -60t-60 -25t-60 25t-25 60z" />
    <glyph glyph-name="dns" unicode="dns" horiz-adv-x="469" 
d="M75 11v64h42v-64h-42zM427 149q17 0 29.5 -12.5t12.5 -29.5v-128q0 -18 -12.5 -30.5t-29.5 -12.5h-384q-18 0 -30.5 12.5t-12.5 30.5v128q0 17 12.5 29.5t30.5 12.5h384zM149 11v64q0 13 -9 22.5t-22 9.5h-1h-74v-128h74h1q13 0 22 9t9 22v1zM288 -21v128h-27v-75l-53 75
h-27v-128h27v74l54 -74h26zM427 74v33h-86q-8 0 -14.5 -6.5t-6.5 -15.5v-37q0 -9 6.5 -15.5t14.5 -6.5h54v-15h-75v-32h85q9 0 15.5 6t6.5 15v37q0 9 -6.5 15t-15.5 6h-53v16h75zM70 192h-44q-5 21 -5 43q0 88 62.5 150.5t151 62.5t151 -62.5t62.5 -150.5q0 -22 -4 -43h-44
q5 21 5 43q0 21 -5 42h-72q2 -21 3 -42q-1 -22 -3 -43h-43q3 21 3 43q0 21 -3 42h-100q-3 -21 -4 -42q1 -22 4 -43h-43q-3 21 -3 43q0 21 3 42h-72q-6 -21 -6 -42q0 -22 6 -43zM382 320q-13 23 -40 45t-52 31q19 -36 29 -76h63zM235 404q-27 -39 -41 -84h81q-13 45 -40 84z
M179 396q-25 -9 -52 -31t-40 -45h63q10 40 29 76z" />
    <glyph glyph-name="endpoints_connected" unicode="endpoints_connected" horiz-adv-x="384" 
d="M384 170h-256v-106h21v-85h-85v85h21v106h-85v43h256v107h-21v85h85v-85h-21v-107h85v-43z" />
    <glyph glyph-name="endpoints_disconnected" unicode="endpoints_disconnected" horiz-adv-x="397" 
d="M0 343l27 27l357 -357l-27 -27l-185 184h-31v-106h21v-85h-85v85h21v106h-85v43h117zM312 213h85v-43h-116l-42 43h30v107h-21v85h85v-85h-21v-107z" />
    <glyph glyph-name="endpoints" unicode="endpoints" horiz-adv-x="384" 
d="M0 171v43h43v-43h-43zM85 85v43h42v-43h-42zM85 171v43h42v-43h-42zM170 171v43h43v-43h-43zM256 171v43h42v-43h-42zM341 171v43h43v-43h-43zM256 256v42h42v-42h-42zM63 -21v85h86v-85h-86zM234 320v85h86v-85h-86z" />
    <glyph glyph-name="enhancement" unicode="enhancement" horiz-adv-x="426" 
d="M0 -22v172h85v-172h-85zM149 -22v256h86v-256h-86zM426 320h-42v-342h-86v342h-42l85 85z" />
    <glyph glyph-name="file_system" unicode="file_system" horiz-adv-x="384" 
d="M235 171q-9 0 -15.5 6t-6.5 15v21h-106v-149h106v21q0 9 6.5 15.5t15.5 6.5h42l22 -22h64q8 0 14.5 -6t6.5 -15v-64q0 -9 -6.5 -15t-14.5 -6h-128q-6 0 -11 2.5t-8 7.5t-3 11v21h-149v278h-43q-8 0 -14.5 6t-6.5 15v85q0 9 6.5 15.5t14.5 6.5h43l21 -22h64q4 0 7 -1t6 -3
t5 -4.5t3 -6t1 -6.5v-64q0 -9 -6.5 -15t-15.5 -6h-42v-43h106v21q0 9 6.5 15.5t15.5 6.5h42l22 -22h64q8 0 14.5 -6t6.5 -15v-64q0 -9 -6.5 -15t-14.5 -6h-128z" />
    <glyph glyph-name="flask" unicode="flask" horiz-adv-x="384" 
d="M376 54q8 -12 8 -26q0 -20 -14.5 -34.5t-35.5 -14.5h-285q-20 0 -34.5 14.5t-14.5 34.5q0 14 8 26l19 31l101 161v138h-43v43h214v-43h-43v-138l101 -161zM213 384h-42v-149l-94 -150h230l-94 150v149z" />
    <glyph glyph-name="fork" unicode="fork" horiz-adv-x="427" 
d="M427 341q0 -18 -12.5 -36t-30.5 -24v-68q0 -17 -12.5 -29.5t-30.5 -12.5h-106v-90q17 -6 29.5 -23.5t12.5 -36.5q0 -26 -18.5 -45t-45 -19t-45.5 19t-19 45q0 19 12.5 36.5t30.5 23.5v90h-107q-11 0 -21 5.5t-15.5 15.5t-5.5 21v68q-18 6 -30.5 24t-12.5 37q0 26 19 45
t45 19t45 -19t19 -45q0 -13 -5.5 -25.5t-15.5 -22t-22 -13.5v-68h256v68q-17 6 -29.5 24t-12.5 37q0 26 18.5 45t45 19t45.5 -19t19 -45v-1z" />
    <glyph glyph-name="inbound" unicode="inbound" horiz-adv-x="427" 
d="M384 405q18 0 30.5 -12.5t12.5 -29.5v-214h-43v171l-171 -107l-170 107v-213h170v-43h-170q-18 0 -30.5 12.5t-12.5 30.5v256q0 17 12.5 29.5t30.5 12.5h341zM213 256l171 107h-341zM341 171v-64h86v-43h-86v-64l-85 85z" />
    <glyph glyph-name="ingress" unicode="ingress" horiz-adv-x="469" 
d="M277 -64h-85v85h85v-85zM320 234h-64v-170h-43v170h-64l22 22l21 21l21 21l22 22l21 -22l21 -21l22 -21zM0 107v277q0 9 3 17q7 15 23 22q8 4 17 4h384q8 0 16 -4q16 -6 23 -22q3 -8 3 -17v-277q0 -9 -3 -17q-7 -16 -23 -23q-8 -3 -16 -3h-128v42h128v278h-384v-278h128
v-42h-128q-9 0 -17 3q-16 7 -23 23q-3 8 -3 17z" />
    <glyph glyph-name="init_container" unicode="init_container" horiz-adv-x="469" 
d="M213 64v-10.5v-10.5q0 -11 2 -22h-172q-18 0 -30.5 12.5t-12.5 30.5v171q0 17 12.5 29.5t30.5 12.5l32 1l113 73q-17 12 -17 33h21q0 -9 6.5 -15t15 -6t15 6t6.5 15t-6.5 15t-15.5 6v43h22v-27q8 -5 14.5 -16t6.5 -21q0 -21 -17 -33l113 -73l32 -1q18 0 30.5 -12.5
t12.5 -29.5v-58q-21 10 -43 13v45h-341v-171h170zM213 342l-106 -65h213l-106 65l-1 -1v1zM277 165q-26 -18 -42 -46v73q0 9 6 15t15 6t15 -6t6 -15v-27zM341.5 213q8.5 0 15 -6t6.5 -15q-22 0 -43 -6v6q0 9 6.5 15t15 6zM85.5 213q8.5 0 15 -6t6.5 -15v-85q0 -9 -6.5 -15.5
t-15 -6.5t-15 6.5t-6.5 15.5v85q0 9 6.5 15t15 6zM171 213q5 0 10 -2.5t8 -7.5t3 -11v-85q0 -9 -6.5 -15.5t-14.5 -6.5q-6 0 -11 3t-8 8t-3 11v85q0 9 6.5 15t15.5 6zM467 15q2 -2 2 -5q0 -1 -1 -2l-21 -37q-2 -3 -5 -3h-2l-27 11q-8 -6 -17 -10l-5 -28q0 -5 -5 -5h-42h-1
q-4 0 -5 5l-4 28q-10 4 -18 10l-26 -11h-2q-3 0 -5 3l-21 37q-1 1 -1 2q0 3 2 5l23 17q-1 5 -1 10.5t1 10.5l-23 18q-2 1 -2 4q0 1 1 3l21 37q2 2 5 2h2l26 -11q8 7 18 11l4 28q1 4 6 4h42q5 0 5 -4l4 -28q10 -4 18 -11l27 11h2q3 0 4 -2l22 -37v-3q0 -2 -1 -4l-23 -18
q1 -5 1 -10q0 -6 -1 -11zM365 11v0q14 0 23 9t9 23q0 8 -4 15.5t-11.5 12t-16.5 4.5q-13 0 -22.5 -9.5t-9.5 -23t9.5 -22.5t22.5 -9z" />
    <glyph glyph-name="ip" unicode="ip" horiz-adv-x="469" 
d="M70 192l-49 -21v64q0 88 62.5 150.5t151 62.5t151 -62.5t62.5 -150.5v-64l-48 21q5 21 5 43q0 21 -5 42h-72q2 -21 3 -42q-1 -22 -3 -43h-43q3 21 3 43q0 21 -3 42h-100q-3 -21 -4 -42q1 -22 4 -43h-43q-3 21 -3 43q0 21 3 42h-72q-6 -21 -6 -42q0 -22 6 -43zM382 320
q-13 23 -40 45t-52 31q19 -36 29 -76h63zM235 404q-27 -39 -41 -84h81q-13 45 -40 84zM179 396q-25 -9 -52 -31t-40 -45h63q10 40 29 76zM427 149h-384v-170h384v170zM427 192q17 0 29.5 -12.5t12.5 -30.5v-170q0 -12 -5.5 -22t-15.5 -15.5t-21 -5.5h-384q-18 0 -30.5 12.5
t-12.5 30.5v170q0 12 5.5 22t15.5 15.5t22 5.5h384zM128 0v128h43v-128h-43zM320 128h1q13 0 22 -9t9 -22v-1v-21v-1q0 -13 -9 -22t-22 -9h-1h-43v-43h-42v128h85zM320 64v43h-43v-43h43z" />
    <glyph glyph-name="job" unicode="job" horiz-adv-x="405" 
d="M341 101q6 -3 11 -9.5t8 -13.5t3 -14q0 -18 -12.5 -30.5t-30.5 -12.5t-30.5 12.5t-12.5 30.5q0 10 6.5 21t15.5 16v112l-43 43h-149v-64h64v-85h-64v-64h48q5 8 16 14.5t21 6.5q18 0 30.5 -12.5t12.5 -30t-12.5 -30t-30.5 -12.5q-10 0 -21 6t-16 15h-91v43v64h-64v85h64
v128h-64v85h171v-85h-64v-21h149l64 64l85 -86l-64 -64v-112zM21 341h128v43h-128v-43zM192 43q-9 0 -15 -6.5t-6 -15t6 -15t15 -6.5t15 6.5t6 14.5q0 6 -2.5 11t-7.5 8t-11 3zM149 171h-128v-43h128v43zM320 333l-55 -56l55 -55l55 55zM320 43q9 0 15 6t6 15t-6 15t-15 6
t-15 -6t-6 -15t6 -15t15 -6z" />
    <glyph glyph-name="kubelet" unicode="kubelet" 
d="M60 128h-60l27 59l26 58l27 59l27 59h59l-26 -59l-27 -59l-27 -58zM171 406v-22h-64v22q0 4 1 8q6 13 20 13h47q-1 -3 -2 -5.5t-1.5 -5t-0.5 -5.5v-5zM107 85q0 -5 0.5 -11t2 -11t4 -10.5t5.5 -9.5h-34q-11 0 -21 5.5t-15.5 15.5t-5.5 21h16h16h16h16zM341 406v-22h-128
v22q0 4 2 8q6 13 20 13h85q9 0 15 -6.5t6 -14.5zM326 107l-16 -16l-16 -16l-16 -16l-16 -16h-70q-18 0 -30.5 12.5t-12.5 29.5v22h177zM331 128h-224l26 59l27 58l27 59l26 59h128l16 -34l15 -34l16 -34l15 -34q-5 -2 -10.5 -5t-10.5 -6t-9.5 -6.5t-8.5 -7.5
q-13 -13 -22.5 -34.5t-10.5 -39.5zM320 256q0 11 -5.5 21t-15.5 15.5t-21 5.5q-18 0 -30.5 -12.5t-12.5 -30t12.5 -30t30.5 -12.5q11 0 22.5 7.5t16.5 18.5q3 8 3 17zM320 -40q-1 -1 -3 -2t-3 -1h-1q-2 0 -4 1.5t-4 2.5l-6 7l-6 6l-6 6l-6 6q-2 1 -3 3t-1 4t1 4t3 4l24 24
l24 24l25 25l24 24q-5 12 -5 24q0 7 2 14q2 10 7 19q10 19 30 29q10 5 20 7q6 1 12 1q5 0 9 -1q11 -1 20 -6l-11 -12l-12 -11l-11 -12l-12 -12l8 -8l8 -8l8 -8l8 -8l12 12l12 11l11 12l12 11q4 -9 5 -20q1 -5 1 -9q0 -6 -1 -12q-2 -10 -6 -20q-5 -10 -13 -18q-8 -7 -17 -12
t-19 -7q-7 -1 -14 -1q-12 0 -24 4l-25 -24l-24 -24l-24 -24z" />
    <glyph glyph-name="machine_learning" unicode="machine_learning" horiz-adv-x="427" 
d="M192 256v21h43v-21h-43zM192 341v22h43v-22h-43zM192 213v22h43v-22h-43zM405 192q9 0 15.5 -6.5t6.5 -14.5v-43q0 -9 -6.5 -15t-15.5 -6v-86q-46 0 -102 -22t-90 -53q-33 31 -89.5 53t-101.5 22h-1v86q-8 0 -14.5 6t-6.5 15v43q0 8 6.5 14.5t14.5 6.5v64q42 0 94 -19
t85 -45h27q32 26 84.5 45t93.5 19v-64zM128 363q0 9 6 15t15 6t15.5 -6t6.5 -15q0 -6 -3 -11t-8 -8t-11 -3q-9 0 -15 6.5t-6 15.5zM256 363q0 9 6 15t15 6t15.5 -6t6.5 -15t-6.5 -15.5t-15.5 -6.5t-15 6.5t-6 15.5zM299 277h-171q-26 0 -45 19t-19 45v43q0 26 19 45t45 19
h171q13 0 24.5 -5t20 -13.5t14 -20.5t5.5 -25v-43q0 -26 -19 -45t-45 -19zM128 405q-9 0 -15 -6t-6 -15v-43q0 -8 6 -14.5t15 -6.5h171q8 0 14.5 6.5t6.5 14.5v43q0 9 -6.5 15t-14.5 6h-171z" />
    <glyph glyph-name="master" unicode="master" horiz-adv-x="427" 
d="M43 21h341v-42h-341v42zM405.5 341q8.5 0 15 -6t6.5 -15t-6.5 -15t-15.5 -6h-1l-10 -117l-10 -118h-341l-10 118l-10 117h-0.5h-1.5q-8 0 -14.5 6t-6.5 15t6.5 15t15 6t15 -6t6.5 -15q0 -4 -1.5 -7t-3.5 -6l45 -36l45 -36l37 65l38 66q-5 3 -8 7.5t-3 10.5q0 9 6.5 15
t15 6t15 -6t6.5 -15q0 -6 -3 -10.5t-8 -7.5l37 -66l38 -65l45 36l45 36q-2 3 -3.5 6t-1.5 7q0 9 6.5 15t15 6z" />
    <glyph glyph-name="merge" unicode="merge" horiz-adv-x="427" 
d="M363 213q26 0 45 -18.5t19 -45t-19 -45t-45 -18.5q-19 0 -36.5 12t-23.5 30q-119 1 -163 24q-32 15 -55 42v-113q18 -6 30.5 -23.5t12.5 -36.5q0 -26 -19 -45t-45 -19t-45 19t-19 45q0 19 12.5 36.5t30.5 23.5v200q-18 7 -30.5 24.5t-12.5 36.5q0 26 19 45t45 19
q18 0 32.5 -8.5t23 -23.5t8.5 -32q0 -18 -12 -35.5t-29 -24.5q6 -26 27 -53.5t45 -38.5q36 -19 144 -19q6 17 23.5 29.5t36.5 12.5z" />
    <glyph glyph-name="miscellaneous" unicode="miscellaneous" horiz-adv-x="384" 
d="M320 171l21 -168v-3q0 -9 -6 -15t-15 -6h-256q-9 0 -15 6t-6 15v3l21 168h256zM384 235v-43h-384v43h384zM250 324q16 -10 30 -30t19 -38h-43q0 9 -6.5 15t-15 6t-15 -6t-6.5 -15h-42q0 9 -6.5 15t-15 6t-15 -6t-6.5 -15h-43q5 18 19 38t30 30q-6 20 -6 40v2q0 25 6 43
t15 18t15.5 -18t6.5 -43q0 -14 -3 -28q12 3 24 3t24 -3q-3 14 -3 28v0q0 25 6.5 43t15.5 18t15 -18t6 -43v-2q0 -20 -6 -40z" />
    <glyph glyph-name="modified_date" unicode="modified_date" horiz-adv-x="427" 
d="M384 384q12 0 21.5 -5.5t15.5 -15.5t6 -22v-341q0 -18 -12.5 -30.5t-30.5 -12.5h-341q-18 0 -30.5 12.5t-12.5 30.5v341q0 12 5.5 22t15.5 15.5t22 5.5h21v43h43v-43h213v43h43v-43h21zM118 0l201 201l-76 75l-200 -201v-75h75zM378 260q6 6 6 14.5t-6 13.5l-47 47
q-6 6 -14 6t-14 -6l-40 -39l76 -75z" />
    <glyph glyph-name="molecules" unicode="molecules" 
d="M448 256q26 0 45 -19t19 -45t-19 -45t-45 -19q-4 0 -8 1l-31 -63q18 -19 18 -45t-19 -45t-45 -19q-19 0 -36.5 12.5t-23.5 30.5h-94q-6 -18 -23.5 -30.5t-36.5 -12.5q-26 0 -45 19t-19 45t18 45l-31 63q-4 -1 -8 -1q-26 0 -45 19t-19 45t19 45t45 19q4 0 8 -1l31 63
q-18 19 -18 45t19 45t45 19q19 0 36.5 -12.5t23.5 -30.5h94q6 18 23.5 30.5t36.5 12.5q17 0 32 -8.5t23.5 -23.5t8.5 -32q0 -26 -18 -45l31 -63q4 1 8 1zM371 85l31 63q-18 18 -18 44t18 44l-32 63h-10q-18 0 -35 12.5t-22 29.5h-94q-6 -17 -23.5 -29.5t-36.5 -12.5h-7
l-32 -63q18 -18 18 -44t-18 -44l32 -63h7q19 0 36.5 -12.5t23.5 -29.5h94q6 17 23.5 29.5t36.5 12.5h8z" />
    <glyph glyph-name="monitoring" unicode="monitoring" horiz-adv-x="469" 
d="M213 0v64h43v-64h-43zM149 0h171v-43h-171v43zM405 64h-341q-26 0 -45 19t-19 45v235q0 26 19 45t45 19h341q27 0 45.5 -19t18.5 -45v-235q0 -26 -18.5 -45t-45.5 -19zM64 384q-6 0 -11 -3t-7.5 -8t-2.5 -10v-235q0 -6 2.5 -11t7.5 -7.5t11 -2.5h341q9 0 15.5 6t6.5 15
v235q0 8 -6.5 14.5t-15.5 6.5h-341zM320 128l-41 136l-23 -93l-28 64h-7l-29 -86l-25 87l-11 -23h-71v22h58l28 64l22 -80l13 37h35l11 -21l25 128l43 -171l14 43h50v-22h-35z" />
    <glyph glyph-name="move" unicode="move" horiz-adv-x="427" 
d="M427 192l-85 -86v64h-107v-106h64l-86 -86l-85 86h64v106h-107v-64l-85 86l85 85v-64h107v107h-64l85 85l86 -85h-64v-107h107v64z" />
    <glyph glyph-name="multistate" unicode="multistate" horiz-adv-x="469" 
d="M0 362.5q0 26.5 18.5 45.5t45.5 19q17 0 32 -8.5t23.5 -23.5t8.5 -32q0 -27 -18.5 -45.5t-45.5 -18.5t-45.5 18.5t-18.5 45zM64 128q-26 0 -45 19t-19 45t19 45t45 19t45 -19t19 -45t-19 -45t-45 -19zM64 235q-18 0 -30.5 -12.5t-12.5 -30.5t12.5 -30.5t30.5 -12.5
t30.5 12.5t12.5 30.5t-12.5 30.5t-30.5 12.5zM234.5 -43q-26.5 0 -45 19t-18.5 45.5t18.5 45t45 18.5t45.5 -18.5t19 -45t-19 -45.5t-45.5 -19zM234.5 64q-17.5 0 -30 -12.5t-12.5 -30t12.5 -30t30 -12.5t30 12.5t12.5 30t-12.5 30t-30 12.5zM405.5 299q-26.5 0 -45.5 18.5
t-19 45t19 45.5t45.5 19t45 -19t18.5 -45.5t-18.5 -45t-45 -18.5zM405.5 405q-17.5 0 -30 -12.5t-12.5 -30t12.5 -30t29.5 -12.5q12 0 22 5.5t15.5 15.5t5.5 22q0 17 -12.5 29.5t-30 12.5zM0 21q0 18 8.5 32.5t23.5 23t32 8.5q27 0 45.5 -18.5t18.5 -45t-18.5 -45.5
t-45.5 -19t-45.5 19t-18.5 45zM171 362.5q0 26.5 18.5 45.5t45.5 19q17 0 32 -8.5t23.5 -23.5t8.5 -32q0 -27 -19 -45.5t-45.5 -18.5t-45 18.5t-18.5 45zM171 192q0 27 18.5 45.5t45 18.5t45.5 -18.5t19 -45.5t-19 -45.5t-45.5 -18.5t-45 18.5t-18.5 45.5zM341 192
q0 27 19 45.5t45.5 18.5t45 -18.5t18.5 -45.5q0 -13 -5 -25t-13.5 -20.5t-20.5 -13.5t-25 -5q-26 0 -45 18.5t-19 45.5zM341 21.5q0 26.5 19 45t45.5 18.5t45 -18.5t18.5 -45t-18.5 -45.5t-45 -19t-45.5 19t-19 45.5z" />
    <glyph glyph-name="namespace" unicode="namespace" horiz-adv-x="469" 
d="M469 213v-42q-13 0 -17 -6t-4 -22v-96q0 -39 -21 -53.5t-64 -14.5v42h10t9 0.5t7 1t6.5 1.5t4 3t3.5 5t1.5 7.5t0.5 10.5v92v5q0 15 7 28t21 17q-14 4 -21 17t-7 28v5v92q0 6 -0.5 10.5t-1.5 7.5t-3.5 5t-4 3t-6.5 1.5t-7 1t-9 0.5h-10v42q43 0 64 -14.5t21 -53.5v-96
q0 -16 4 -22t17 -6zM0 213q13 0 17 6t4 22v96q0 39 21 53.5t65 14.5v-42h-11t-9 -0.5t-7 -1t-6 -1.5t-4 -3t-3.5 -5t-1.5 -7.5t-1 -10.5v-92v-5q0 -15 -6 -28q-8 -13 -22 -17q14 -4 22 -17q6 -13 6 -28v-5v-92q0 -14 4 -20t9.5 -7t19.5 -2h3.5h3h3.5v-42q-44 0 -65 14.5
t-21 53.5v96q0 16 -4 22t-17 6v42zM363 256v-128h-256v128h256zM149 213v-42h171v42h-171z" />
    <glyph glyph-name="network_file_system" unicode="network_file_system" horiz-adv-x="427" 
d="M299 85v-21h128v-43h-128v-21h-171v21h-128v43h128v21h64v86h43v-86h64zM277 171h-192q-8 0 -14.5 6t-6.5 15v171q0 8 6.5 14.5t14.5 6.5h107l21 -21h128q9 0 15.5 -6.5t6.5 -15.5v-149q0 -9 -6.5 -15t-15.5 -6h-64z" />
    <glyph glyph-name="network_policy" unicode="network_policy" 
d="M235 426.5q0 8.5 6 15t15 6.5t15 -6.5t6 -15t-6 -15t-15 -6.5t-15 6.5t-6 15zM64 299q-9 0 -15 6t-6 15t6 15t15 6t15 -6t6 -15t-6 -15t-15 -6zM149.5 384q-8.5 0 -15 6.5t-6.5 15t6.5 15t15 6.5t15 -6.5t6.5 -15t-6.5 -15t-15 -6.5zM362.5 384q-8.5 0 -15 6.5t-6.5 15
t6.5 15t15 6.5t15 -6.5t6.5 -15t-6.5 -15t-15 -6.5zM448 299q-9 0 -15 6t-6 15t6 15t15 6t15 -6t6 -15t-6 -15t-15 -6zM228 24q-59 10 -101 59t-42 109q0 46 23 85.5t62.5 62.5t85.5 23q43 0 87 -27t64 -65l-23 10l-27 -11q-20 26 -50 39q-1 -13 -11 -22.5t-23 -9.5h-34v-34
q0 -7 -5 -12t-12 -5h-34v-34h25v-91q-8 10 -8 23v17l-75 74q-2 -11 -2 -23q0 -39 25.5 -74t61.5 -47q4 -24 13 -47zM149.5 0q8.5 0 15 -6.5t6.5 -15t-6.5 -15t-15 -6.5t-15 6.5t-6.5 15t6.5 15t15 6.5zM256 -21q9 0 15 -6.5t6 -15t-6 -15t-15 -6.5t-15 6.5t-6 14.5
q0 6 2.5 11t7.5 8t11 3zM64 85q9 0 15 -6t6 -15t-6 -15t-15 -6t-15 6t-6 15t6 15t15 6zM21 213q6 0 11 -2.5t8 -7.5t3 -11q0 -9 -6.5 -15t-15 -6t-15 6t-6.5 15t6.5 15t14.5 6zM512 181v-82q-1 -35 -18.5 -69.5t-46.5 -59.5t-63 -34q-51 14 -88.5 61.5t-39.5 100.5v83
l128 54z" />
    <glyph glyph-name="network" unicode="network" 
d="M256 363q71 0 121 -50t50 -121t-50 -121t-121 -50t-121 50t-50 121t50 121t121 50zM128 192q0 -46 32.5 -83.5t78.5 -43.5v25q-14 0 -24 10t-10 24v17l-75 74q-2 -11 -2 -23zM324 124q19 0 29 -16q13 15 22 39.5t9 44.5q0 35 -22.5 69.5t-54.5 47.5q-1 -13 -11 -22.5
t-23 -9.5h-34v-34q0 -7 -5 -12t-12 -5h-34v-34h102q7 0 12 -5t5 -12v-51h17zM277 426.5q0 -8.5 -6 -15t-15 -6.5t-15 6.5t-6 15t6 15t15 6.5t15 -6.5t6 -15zM384 405.5q0 -8.5 -6.5 -15t-15 -6.5t-15 6.5t-6.5 15t6.5 15t15 6.5t15 -6.5t6.5 -15zM469 320q0 -9 -6 -15
t-15 -6t-15 6t-6 15t6 15t15 6t15 -6t6 -15zM512 192q0 -9 -6.5 -15t-15 -6t-15 6t-6.5 15t6.5 15t15.5 6q5 0 10 -2.5t8 -7.5t3 -11zM469 64q0 -9 -6 -15t-15 -6t-15 6t-6 15t6 15t15 6t15 -6t6 -15zM384 -21.5q0 -8.5 -6.5 -15t-15 -6.5t-15 6.5t-6.5 15t6.5 15t15 6.5
t15 -6.5t6.5 -15zM277 -42.5q0 -8.5 -6 -15t-15 -6.5t-15 6.5t-6 14.5q0 6 2.5 11t7.5 8t11 3q9 0 15 -6.5t6 -15zM171 -21.5q0 -8.5 -6.5 -15t-15 -6.5t-15 6.5t-6.5 15t6.5 15t15 6.5t15 -6.5t6.5 -15zM85 64q0 -9 -6 -15t-15 -6t-15 6t-6 15t6 15t15 6t15 -6t6 -15z
M43 192q0 -9 -6.5 -15t-15 -6t-15 6t-6.5 15t6.5 15t14.5 6q6 0 11 -2.5t8 -7.5t3 -11zM85 320q0 -9 -6 -15t-15 -6t-15 6t-6 15t6 15t15 6t15 -6t6 -15zM171 405.5q0 -8.5 -6.5 -15t-15 -6.5t-15 6.5t-6.5 15t6.5 15t15 6.5t15 -6.5t6.5 -15z" />
    <glyph glyph-name="neural_network" unicode="neural_network" 
d="M235 299v21h64v-21h-64zM128 279q9 3 15.5 12t6.5 18q0 14 -9.5 23t-23 9t-22.5 -9t-9 -23q0 -6 2.5 -12t7.5 -11t11 -7v-44h107v-43h-128v-66q-9 -3 -15.5 -12t-6.5 -18q0 -13 9.5 -22.5t22.5 -9.5t22.5 9.5t9.5 22.5q0 9 -6 18t-15 12v45h107v-143h-1q1 -3 1 -7
q0 -6 -2 -11q-6 -14 -20.5 -23t-29.5 -9q-11 0 -21 4q-24 7 -37 29q-16 1 -32.5 12t-23.5 25q-11 18 -11 39q0 7 1 14q-8 3 -15 8.5t-12 13t-8 16t-3 16.5v4q0 14 6 27q-6 15 -6 32v6q0 16 9.5 33.5t22.5 27.5q-8 12 -8 26q0 11 5.5 21t15 17t20.5 8q7 11 16 19q18 16 42 16
q5 0 9 -1q14 14 34 14q19 0 32.5 -13t14.5 -32h1v-104h-86v23zM214 171v21h64v-21h-64zM256 85v86h22v-86h-22zM256 85v22h43v-22h-43zM512 218q0 -17 -5 -32q5 -13 5 -27v-4q0 -17 -11 -32.5t-27 -21.5q2 -7 2 -14q0 -21 -11 -39q-5 -9 -14 -17.5t-20.5 -14t-21.5 -5.5
q-13 -22 -38 -29q-10 -4 -21 -4q-14 0 -28.5 9t-20.5 23q-2 5 -2 11q0 4 1 7h-1v57h66q2 -5 6.5 -10t11 -8t12.5 -3q13 0 22.5 9.5t9.5 22.5t-9.5 22.5t-22.5 9.5q-9 0 -18 -6.5t-12 -14.5h-66v192h128v-45q-9 -3 -15 -12t-6 -18q0 -13 9 -22.5t22.5 -9.5t23 9.5t9.5 22.5
q0 9 -6.5 18t-15.5 12v66h-149v40q1 19 15 32t32 13q20 0 34 -14q5 1 9 1q24 0 42 -16q10 -8 16 -19q17 -2 29 -15.5t12 -30.5q0 -14 -7 -26q13 -10 22 -27.5t9 -33.5v-6zM214 235v21h42v-21h-42zM235 256v43h21v-43h-21z" />
    <glyph glyph-name="node" unicode="node" horiz-adv-x="384" 
d="M171 384q0 9 6 15t15 6t15 -6t6 -15t-6 -15t-15 -6t-15 6t-6 15zM341 277q0 9 6.5 15.5t15.5 6.5t15 -6.5t6 -15.5t-6 -15t-15 -6t-15.5 6t-6.5 15zM341 107q0 9 6.5 15t15.5 6t15 -6t6 -15q0 -6 -3 -11t-8 -8t-10 -3q-9 0 -15.5 6.5t-6.5 15.5zM0 277q0 9 6 15.5t15 6.5
t15.5 -6.5t6.5 -15.5t-6.5 -15t-15.5 -6t-15 6t-6 15zM0 107q0 9 6 15t15 6t15.5 -6t6.5 -15t-6.5 -15.5t-15.5 -6.5t-15 6.5t-6 15.5zM363 149h-1q-11 0 -21 -5.5t-15.5 -15.5t-5.5 -21q0 -17 11 -29l-102 -57q-9 16 -26 20v110q13 3 22.5 15t9.5 26q0 18 -12.5 30.5
t-30.5 12.5t-30.5 -12.5t-12.5 -30.5q0 -14 9.5 -26t22.5 -15v-110q-17 -4 -26 -20l-102 57q11 12 11 29t-12.5 29.5t-29.5 12.5h-1v86h1q17 0 29.5 12.5t12.5 29.5t-11 29l102 57q5 -9 16 -15.5t21 -6.5t21 6.5t16 15.5l102 -57q-11 -12 -11 -29t12.5 -29.5t29.5 -12.5h1
v-86zM171 0q0 9 6 15t15 6t15 -6t6 -15t-6 -15t-15 -6t-15 6t-6 15zM171 192q0 9 6 15t15 6t15 -6t6 -15t-6 -15t-15 -6t-15 6t-6 15z" />
    <glyph glyph-name="organisms" unicode="organisms" horiz-adv-x="470" 
d="M438 213q13 0 22.5 -9t9.5 -22.5t-9.5 -23t-22.5 -9.5q-4 0 -8 1l-32 -55q8 -9 8 -21q0 -8 -4.5 -15.5t-12 -11.5t-15.5 -4q-10 0 -18.5 6t-11.5 15h-47q-2 -6 -6.5 -11t-11 -7.5t-12.5 -2.5q-4 0 -7 1l-32 -56q7 -9 7 -20q0 -13 -9.5 -22.5t-22.5 -9.5q-9 0 -18 6
t-12 15h-47q-3 -8 -11.5 -14.5t-18.5 -6.5q-13 0 -22.5 9.5t-9.5 22.5q0 11 7 20l-32 56q-3 -1 -7 -1q-13 0 -22.5 9t-9.5 22.5t9.5 23t22.5 9.5q4 0 7 -1l32 56q-7 8 -7 19.5t7 19.5l-32 56q-3 -1 -7 -1q-13 0 -22.5 9.5t-9.5 22.5t9.5 22.5t22.5 9.5q4 0 7 -1l32 56
q-7 9 -7 20q0 13 9.5 22.5t22.5 9.5q6 0 12.5 -3t11 -8t6.5 -11h47q3 9 12 15.5t18 6.5q13 0 22.5 -9.5t9.5 -22.5q0 -11 -7 -20l32 -56q4 1 7 1q9 0 18 -6.5t12 -14.5h47q3 8 11.5 14.5t18.5 6.5q13 0 22.5 -9.5t9.5 -22.5q0 -11 -7 -20l32 -55h7zM374 107q3 0 6 -1l32 56
q-6 8 -6 19t7 20l-32 56q-4 -1 -8 -1q-9 0 -17.5 6.5t-11.5 14.5h-47q-3 -8 -12 -14.5t-18 -6.5q-4 0 -7 1l-32 -56q7 -8 7 -20q0 -11 -7 -19l32 -56q4 1 7 1q9 0 18 -6.5t12 -15.5h47q3 9 11.5 15.5t18.5 6.5zM203 0q3 0 7 -1l32 56q-7 9 -7 20t7 19l-32 56q-4 -1 -7 -1
q-10 0 -18.5 6.5t-11.5 15.5h-47q-3 -9 -11.5 -15.5t-18.5 -6.5q-3 0 -7 1l-32 -56q7 -8 7 -19t-7 -20l33 -56q3 1 6 1q10 0 18.5 -6.5t11.5 -14.5h47q2 5 6.5 10t11 8t12.5 3zM57 308q7 -9 7 -20t-7 -20l33 -55h6q10 0 18.5 -6t11.5 -15h47q3 9 12 15t18 6h7l32 55
q-7 9 -7 20t7 20l-32 55h-7q-10 0 -18.5 6t-11.5 15h-47q-2 -6 -6.5 -11t-10.5 -7.5t-13 -2.5h-7z" />
    <glyph glyph-name="organization" unicode="organization" horiz-adv-x="428" 
d="M385 214h11v-86h-43v43h-117v-43h-43v43h-118v-43h-43v86h12h31h118v42h43v-42h117h32zM161 352q0 22 15.5 37.5t37.5 15.5t38 -15.5t16 -37.5t-16 -38t-38 -16t-37.5 16t-15.5 38zM0 32q0 22 15.5 38t37.5 16t38 -16t16 -38t-16 -37.5t-38 -15.5t-37.5 15.5t-15.5 37.5z
M161 32q0 22 15.5 38t37.5 16t38 -16t16 -38t-16 -37.5t-38 -15.5t-37.5 15.5t-15.5 37.5zM321 32q0 22 15.5 38t37.5 16t38 -16t16 -38t-16 -37.5t-38 -15.5t-37.5 15.5t-15.5 37.5z" />
    <glyph glyph-name="outbound" unicode="outbound" horiz-adv-x="427" 
d="M384 405q18 0 30.5 -12.5t12.5 -29.5v-192h-43v149l-171 -107l-170 107v-213h170v-43h-170q-18 0 -30.5 12.5t-12.5 30.5v256q0 17 12.5 29.5t30.5 12.5h341zM213 256l171 107h-341zM427 85l-86 -85v64h-85v43h85v64z" />
    <glyph glyph-name="package_upgrade" unicode="package_upgrade" horiz-adv-x="427" 
d="M336 144l-144 -144h-107q-17 0 -29.5 12.5t-12.5 30.5v234h-43v43h427v-43h-43v-181zM85 107v-43h107v43h-107zM427 10l-30 -30l-61 60l-60 -60l-30 30l90 90l31 -30z" />
    <glyph glyph-name="package" unicode="package" horiz-adv-x="427" 
d="M0 320h427v-43h-43v-234q0 -12 -5.5 -22t-15.5 -15.5t-22 -5.5h-256q-17 0 -29.5 12.5t-12.5 30.5v234h-43v43zM192 64v43h-107v-43h107z" />
    <glyph glyph-name="packages" unicode="packages" horiz-adv-x="427" 
d="M385 320v-43h-267h-74v43h341zM342 405v-43h-201h-55v43h256zM0 235h427v-43h-43v-171q0 -17 -12.5 -29.5t-30.5 -12.5h-256q-17 0 -29.5 12.5t-12.5 29.5v171h-43v43zM192 43v42h-107v-42h107z" />
    <glyph glyph-name="patch_fixes" unicode="patch_fixes" horiz-adv-x="341" 
d="M224 49l41 -42q-18 -12 -45.5 -20t-48.5 -8q-71 0 -121 50t-50 120v1q0 44 20 99.5t49 89.5l-1 -8v-2q0 -32 23 -54.5t55 -22.5q30 0 51.5 22t21.5 52q0 3 -1 5q-2 52 -15 103q57 -45 97.5 -128.5t40.5 -156.5q0 -11 -2 -24t-6.5 -26t-10 -25.5t-11.5 -21.5l-41 41
q7 17 7 35q0 36 -25 60.5t-60 24.5q-17 0 -33 -6l56 -56l-46 -46l-56 56q-6 -16 -6 -33q0 -35 25 -60t60 -25q16 0 32 6z" />
    <glyph glyph-name="patterns" unicode="patterns" horiz-adv-x="470" 
d="M0 362.5q0 26.5 18.5 45t45.5 18.5t45.5 -18.5t18.5 -45t-18.5 -45.5t-45.5 -19t-45.5 19t-18.5 45.5zM299 191q0 -12 -6 -24.5t-15.5 -22t-21.5 -13.5v-50q18 -7 30.5 -24.5t12.5 -36.5q0 -26 -19 -44.5t-45 -18.5q-19 0 -36.5 12.5t-23.5 29.5h-51q-6 -17 -23.5 -29.5
t-36.5 -12.5q-27 0 -45.5 18.5t-18.5 44.5q0 13 5.5 25.5t15.5 22t22 13.5v50q-18 7 -30.5 24.5t-12.5 36.5q0 26 19 45t45.5 19t45 -19t18.5 -45q0 -19 -12.5 -36.5t-30.5 -24.5v-50q12 -5 23.5 -16t15.5 -23h51q2 8 8.5 16t14.5 14t16 9v50q-18 7 -30.5 24.5t-12.5 36
t12.5 36t30.5 24.5v50q-18 6 -30.5 24t-12.5 37q0 26 18.5 44.5t45.5 18.5q18 0 36 -12.5t24 -29.5h50q6 17 24 29.5t36 12.5t32.5 -8.5t23 -23t8.5 -32.5t-12.5 -36t-29.5 -24v-50q17 -7 30 -24.5t13 -36.5q0 -26 -19 -45t-45.5 -19t-45.5 19t-19 45q0 19 12.5 36.5
t30.5 23.5v51q-12 4 -23.5 15.5t-15.5 23.5h-50q-4 -12 -15.5 -23t-23.5 -16v-50q18 -7 30.5 -24.5t12.5 -36.5zM341 20.5q0 26.5 19 45.5t45.5 19t45 -19t18.5 -45.5t-18.5 -45t-45 -18.5t-45.5 18.5t-19 45z" />
    <glyph glyph-name="performance" unicode="performance" horiz-adv-x="469" 
d="M299 -21h-214v42h214v-42zM448 363l-101 -127l-5 -6l-120 -154q-12 -12 -30 -12t-30.5 12.5t-12.5 30t13 30.5zM35 294l22 -27q-15 -22 -25.5 -56t-10.5 -61v-1v-21h-17q-4 21 -4 43q0 28 10.5 63.5t24.5 59.5zM235 405q32 0 73 -13.5t66 -32.5l-75 -60
q-19 17 -50.5 29.5t-56.5 12.5q-17 0 -37 -5.5t-38.5 -15t-30.5 -20.5l-25 29q29 31 80 53.5t94 22.5zM380 209l60 75q12 -22 20.5 -55t8.5 -58q0 -22 -4 -43h-102v21q0 17 -3 34l15 20z" />
    <glyph glyph-name="persistent_volume" unicode="persistent_volume" horiz-adv-x="427" 
d="M384 427q12 0 22 -6t15.5 -15.5t5.5 -21.5v-341q0 -18 -12.5 -30.5t-30.5 -12.5h-50q8 21 8 43q0 53 -37.5 90.5t-90.5 37.5q-35 0 -64 -18q-11 6 -22 10v221q0 12 6 21.5t16 15.5t21 6h213zM150 384q0 -9 6 -15t15 -6t15 6t6 15t-6 15t-15 6t-15 -6t-6 -15zM278 171
q44 0 75 31t31 75t-31 75.5t-75 31.5t-75.5 -31.5t-31.5 -75.5q0 -22 9 -42h55v-55q21 -9 43 -9zM384.5 21q8.5 0 15 6.5t6.5 15t-6.5 15t-15 6.5t-15 -6.5t-6.5 -15t6.5 -15t15 -6.5zM384.5 363q8.5 0 15 6t6.5 15t-6.5 15t-15 6t-15 -6t-6.5 -15t6.5 -15t15 -6zM214 -43
q-16 0 -35 9t-29 21q-9 10 -15 26t-7 30q0 8 -3 16t-9 14t-14 9t-16 3q-18 0 -30.5 -12.5t-12.5 -30t12.5 -30t30.5 -12.5q9 0 17 4q6 -21 19 -38q-17 -9 -36 -9h-1q-35 0 -60 25t-25 60.5t25 60.5t60 25q16 0 35 -8.5t30 -20.5q6 -7 10.5 -16.5t7.5 -20.5t3 -19
q0 -18 12.5 -30.5t30 -12.5t30 12.5t12.5 30.5q0 8 -3 16t-9 14t-14 9t-16.5 3t-16.5 -3q-7 20 -20 37q17 9 37 9q35 0 60 -25t25 -60.5t-25 -60.5t-60 -25zM235 277q0 18 12.5 30.5t30 12.5t30 -12.5t12.5 -30t-12.5 -30t-29.5 -12.5q-12 0 -21.5 5.5t-15.5 15.5t-6 21z
" />
    <glyph glyph-name="pin" unicode="pin" horiz-adv-x="404" 
d="M347 239l30 -30l-75 -76l102 -101l-30 -31l-102 102l-76 -75l-30 30v60l-121 121l-15 -15l-30 30l151 151l30 -30l-15 -15l121 -121h60z" />
    <glyph glyph-name="pipeline" unicode="pipeline" horiz-adv-x="469" 
d="M171 256h42v-107h-42v22h-107q-18 0 -30.5 12.5t-12.5 29.5v150h-21v42h107v-42h-22v-128h86v21zM448 21h21v-42h-106v42h21v150h-85v-22h-43v107h43v-21h106q18 0 30.5 -12.5t12.5 -30.5v-171z" />
    <glyph glyph-name="pod_autoscaler" unicode="pod_autoscaler" 
d="M128 48v16h256v-21q0 -18 -12.5 -30.5t-30.5 -12.5h-170q-18 0 -30.5 12.5t-12.5 30.5v5zM320 363v-22h-128v22q0 4 2 8q5 13 19 13h86q9 0 15 -6t6 -15zM347 261l26 -58l27 -59l27 -59h-342l27 59l27 59l26 58l27 59h128zM273 174q11 4 18.5 15.5t7.5 23.5
q0 18 -12.5 30.5t-30.5 12.5t-30.5 -12.5t-12.5 -30t12.5 -30.5t30.5 -13q9 0 17 4zM437 157v14h-32v42h32v54l19 -19l19 -19l18 -18l19 -19l-19 -19l-18 -18l-19 -19l-19 -19v40zM75 171v-54l-19 19l-19 19l-18 18l-19 19l19 19l18 18l19 19l19 19v-54h32v-42h-32z" />
    <glyph glyph-name="pod_security" unicode="pod_security" horiz-adv-x="427" 
d="M235 362h-129v22q0 9 6.5 15t15.5 6h85q6 0 11 -2.5t8 -7.5t3 -11v-22zM213 107h-213l53 117l54 117h128l27 -61l28 -61l-38 -17l-39 -17v-78zM213 234.5q0 17.5 -12.5 30t-30 12.5t-30 -12.5t-12.5 -30t12.5 -30t30 -12.5t30 12.5t12.5 30zM215 85q3 -17 9 -33t16 -31
h-155q-17 0 -29.5 12.5t-12.5 30.5v21h172zM427 171v-64q0 -19 -8 -43t-20 -38q-10 -15 -30.5 -29t-37.5 -18q-9 2 -19 7t-19 11t-17.5 13.5t-13.5 15.5q-11 14 -19 38t-8 43v64l48 21l48 21l48 -21zM331 190l-38 -17l-37 -16v-61h75v-95q12 4 27 14.5t23 21.5q20 26 24 59
h-74v94z" />
    <glyph glyph-name="pod" unicode="pod" horiz-adv-x="341" 
d="M43 43v21h256v-21q0 -18 -12.5 -30.5t-30.5 -12.5h-171q-17 0 -29.5 12.5t-12.5 30.5zM235 363v-22h-128v22q0 9 6 15t15 6h85q9 0 15.5 -6t6.5 -15zM235 320l106 -235h-341l107 235h128zM171 170q18 0 30.5 12.5t12.5 30.5t-12.5 30.5t-30.5 12.5t-30.5 -12.5
t-12.5 -30.5t12.5 -30.5t30.5 -12.5z" />
    <glyph glyph-name="primitive" unicode="primitive" horiz-adv-x="425" 
d="M166 192q0 19 13.5 33t33 14t33 -14t13.5 -33t-13.5 -33t-33 -14t-33 14t-13.5 33zM418 311q26 -46 -37 -119q63 -73 37 -119q-19 -32 -75 -32q-13 0 -27 2q-9 1 -20 3q-15 -41 -36.5 -65t-47 -24t-47 24t-36.5 66q-23 -5 -47 -6q-57 0 -75 32q-26 46 37 119
q-63 73 -37 118.5t122 26.5q10 28 22.5 48t28.5 31t33 11q25 0 46.5 -24t36.5 -65q11 2 20 3q79 10 102 -30zM319 317q-3 0 -9 -1.5t-7 -1.5q8 -31 12 -63q26 -19 49 -41q51 58 33 89q-12 20 -53 20q-13 0 -25 -2zM253.5 121.5q20.5 11.5 38.5 24.5q2 23 2 46t-2 46
q-18 13 -39 25q-18 11 -41 21q-21 -10 -40 -21q-20 -12 -39 -25q-2 -23 -2 -46t2 -46q19 -13 39 -25q19 -11 41 -21q20 10 40.5 21.5zM288 114q-12 -7 -22.5 -13.5t-23.5 -12.5q19 -7 38 -13q5 19 8 39zM183 88q-13 6 -23 12q-11 7 -23 14q3 -20 8 -39q19 5 38 13zM107 165
v27v27q-15 -13 -29 -27q14 -14 29 -27zM137 270q12 7 23 14q10 6 23 12q-18 8 -38 13q-5 -20 -8 -39zM242 296q13 -6 23.5 -12.5t22.5 -13.5q-3 20 -8 39q-19 -6 -38 -13zM318 219v-27v-27q15 13 29 27q-14 14 -29 27zM213 403q-16 0 -32 -19t-28 -52q30 -9 59 -22
q30 13 60 22q-12 33 -27.5 52t-31.5 19zM28 299q-17 -31 33 -89q23 22 49 41q4 32 12 63q-20 4 -40 4q-43 0 -54 -19zM28 85.5q17 -30.5 94 -15.5q-8 31 -12 63q-26 19 -49 41q-50 -58 -33 -88.5zM213 -19q16 0 31.5 19t27.5 52q-30 9 -59 22q-30 -13 -60 -22q12 -33 28 -52
t32 -19zM397 85q18 31 -33 89q-23 -22 -49 -41q-4 -32 -12 -63q1 0 7 -1.5t9 -1.5q63 -8 78 18z" />
    <glyph glyph-name="product_classes" unicode="product_classes" horiz-adv-x="427" 
d="M107 405q8 0 14.5 -6t6.5 -15v-384q0 -6 -3 -11t-8 -7.5t-10 -2.5h-86q-8 0 -14.5 6t-6.5 15v384q0 9 6.5 15t14.5 6h86zM64 0q18 0 30.5 12.5t12.5 30t-12.5 30t-30.5 12.5t-30.5 -12.5t-12.5 -30t12.5 -30t30.5 -12.5zM107 192v192h-86v-192h86zM43 42.5q0 8.5 6 15
t15 6.5t15.5 -6.5t6.5 -15t-6.5 -15t-15.5 -6.5t-15 6.5t-6 15zM171 405h107v-149v-43h-107v43v149zM320 405h107v-149v-43h-107v43v149zM171 171h107v-150v-42h-107v42v150zM320 171h107v-150v-42h-107v42v150z" />
    <glyph glyph-name="product_subscriptions" unicode="product_subscriptions" horiz-adv-x="427" 
d="M384 277h-341v43h341v-43zM341 405v-42h-256v42h256zM427 192v-171q0 -17 -12.5 -29.5t-30.5 -12.5h-341q-18 0 -30.5 12.5t-12.5 29.5v171q0 18 12.5 30.5t30.5 12.5h341q18 0 30.5 -12.5t12.5 -30.5zM254 84l50 43l-65 5l-26 60l-25 -60l-65 -5l49 -43l-15 -63l56 34
l56 -34z" />
    <glyph glyph-name="products" unicode="products" horiz-adv-x="427" 
d="M107 405q8 0 14.5 -6t6.5 -15v-384q0 -6 -3 -11t-8 -7.5t-10 -2.5h-86q-8 0 -14.5 6t-6.5 15v384q0 9 6.5 15t14.5 6h86zM64 0q18 0 30.5 12.5t12.5 30t-12.5 30t-30.5 12.5t-30.5 -12.5t-12.5 -30t12.5 -30t30.5 -12.5zM107 192v192h-86v-192h86zM85 43q0 -6 -2.5 -11
t-7.5 -8t-11 -3q-9 0 -15 6.5t-6 15t6 15t15 6.5t15 -6.5t6 -14.5zM256 405q9 0 15 -6t6 -15v-384q0 -9 -6 -15t-15 -6h-85q-9 0 -15.5 6t-6.5 15v384q0 9 6.5 15t15.5 6h85zM213.5 0q17.5 0 30 12.5t12.5 30.5q0 8 -3.5 16t-9 14t-13.5 9t-17 3q-11 0 -21 -5.5t-15.5 -15.5
t-5.5 -21q0 -18 12.5 -30.5t30 -12.5zM256 192v192h-85v-192h85zM235 42.5q0 -5.5 -3 -10.5t-8 -8t-11 -3q-8 0 -14.5 6.5t-6.5 15t6.5 15t14.5 6.5q6 0 11 -3t8 -8t3 -10.5zM405 405q9 0 15.5 -6t6.5 -15v-384q0 -9 -6.5 -15t-15.5 -6h-85q-9 0 -15 6t-6 15v384q0 9 6 15
t15 6h85zM362.5 0q17.5 0 30 12.5t12.5 30t-12.5 30t-30 12.5t-30 -12.5t-12.5 -30t12.5 -30t30 -12.5zM405 192v192h-85v-192h85zM384 42.5q0 -8.5 -6.5 -15t-15 -6.5t-15 6.5t-6.5 15t6.5 15t15 6.5t15 -6.5t6.5 -15z" />
    <glyph glyph-name="project" unicode="project" horiz-adv-x="384" 
d="M341 363q12 0 22 -6t15.5 -15.5t5.5 -21.5v-299q0 -17 -12.5 -29.5t-30.5 -12.5h-298q-18 0 -30.5 12.5t-12.5 29.5v299q0 18 12.5 30.5t30.5 12.5h89q6 17 23.5 29.5t36.5 12.5t36.5 -12.5t23.5 -29.5h89zM192 363q-9 0 -15 -6.5t-6 -15t6 -15t15 -6.5t15 6.5t6 14.5
q0 6 -2.5 11t-7.5 8t-11 3zM149 256l-85 -85l30 -30l55 55l60 -60l84 84l27 -28v85h-85l28 -27l-54 -54zM341 43v42h-298v-42h298z" />
    <glyph glyph-name="proxy" unicode="proxy" horiz-adv-x="406" 
d="M278 248q13 -15 18 -35h46v43l64 -64l-64 -64v43h-46q-5 -19 -18 -34l97 -98l31 30v-90h-91l30 30l-103 103q-14 -5 -29 -5q-27 0 -51 18.5t-31 45.5h-51q-5 -9 -16 -15.5t-21 -6.5q-18 0 -30.5 12.5t-12.5 30.5t12.5 30.5t30.5 12.5q10 0 20.5 -6.5t16.5 -15.5h51
q7 27 31 45.5t51 18.5q15 0 29 -5l103 103l-30 30h91v-90l-31 30z" />
    <glyph glyph-name="pull_request" unicode="pull_request" horiz-adv-x="427" 
d="M85 81q18 -6 30.5 -23.5t12.5 -36.5q0 -26 -19 -45t-45 -19t-45 19t-19 45q0 19 12.5 36.5t30.5 23.5v179q-18 6 -30.5 24t-12.5 36q0 27 19 45.5t45 18.5t45 -18.5t19 -45.5q0 -12 -5.5 -24.5t-15.5 -22t-22 -13.5v-179zM384 81q18 -6 30.5 -23.5t12.5 -36.5
q0 -26 -19 -45t-45.5 -19t-45 19t-18.5 45q0 12 5.5 24.5t15.5 22t21 13.5v218h-110l34 -34l-30 -30l-55 55l-31 30l31 30l55 55l30 -30l-34 -34h110q18 0 30.5 -12.5t12.5 -29.5v-218z" />
    <glyph glyph-name="push_pin" unicode="push_pin" horiz-adv-x="256" 
d="M256 170v-43h-106l-1 -148h-42v148h-107v43l43 42v172h-21v42h213v-42h-21v-172z" />
    <glyph glyph-name="quota" unicode="quota" horiz-adv-x="469" 
d="M235 192h192v-21q0 -89 -62.5 -151.5t-151 -62.5t-151 62.5t-62.5 151t62.5 151t150.5 62.5h22v-192zM277 235v192q80 0 136 -56.5t56 -135.5h-192z" />
    <glyph glyph-name="replica_set" unicode="replica_set" horiz-adv-x="448" 
d="M405 171q18 0 30.5 -12.5t12.5 -30.5v-128q0 -18 -12.5 -30.5t-30.5 -12.5h-128q-17 0 -29.5 12.5t-12.5 30.5v128q0 18 12.5 30.5t29.5 12.5h128zM405 0v128h-128v-128h128zM299 299v-86h-43v86h-128v-128h64v-43h-64q-18 0 -30.5 12.5t-12.5 30.5v128q0 17 12.5 29.5
t30.5 12.5h128q18 0 30.5 -12.5t12.5 -29.5zM43 256h-43v128q0 9 3.5 16.5t9 13.5t13.5 9.5t17 3.5h128v-43h-128v-128z" />
    <glyph glyph-name="replica" unicode="replica" horiz-adv-x="363" 
d="M320 213q12 0 21.5 -5.5t15.5 -15.5t6 -21v-128q0 -18 -12.5 -30.5t-30.5 -12.5h-128q-18 0 -30.5 12.5t-12.5 30.5v128q0 17 12.5 29.5t30.5 12.5h128zM320 43v128h-128v-128h128zM171 384q17 0 29.5 -12.5t12.5 -30.5v-85h-42v85h-128v-128h64v-42h-64q-12 0 -22 5.5
t-15.5 15.5t-5.5 21v128q0 18 12.5 30.5t30.5 12.5h128z" />
    <glyph glyph-name="repositories" unicode="repositories" horiz-adv-x="341" 
d="M85 -43v86h107v-86l-53 32zM85 299v42h43v-42h-43zM85 192v43h43v-43h-43zM85 85v43h43v-43h-43zM306 426q15 -3 25 -15t10 -27v-341q0 -12 -5.5 -22t-15.5 -15.5t-21 -5.5h-64v43h64v341h-256v-384q-18 0 -30.5 12.5t-12.5 30.5v341q0 18 12.5 30.5t30.5 12.5h256
q4 0 7 -1z" />
    <glyph glyph-name="role_binding" unicode="role_binding" horiz-adv-x="491" 
d="M320 0v-43h-43q-35 0 -60 25t-25 60.5t25 60.5t60 25h43v-43h-43q-17 0 -29.5 -12.5t-12.5 -30t12.5 -30t29.5 -12.5h43zM491 43q0 -36 -25 -61t-61 -25h-42v43h42q18 0 30.5 12.5t12.5 30t-12.5 30t-30.5 12.5h-42v43h42q24 0 43.5 -11.5t31 -31t11.5 -42.5zM299 21v43
h85v-43h-85zM149 42.5q0 -10.5 2 -21.5h-108q-18 0 -30.5 12.5t-12.5 30.5v299q0 11 5.5 21t15.5 15.5t22 5.5h89q6 18 23.5 30.5t36.5 12.5t36.5 -12.5t23.5 -30.5h89q18 0 30.5 -12.5t12.5 -29.5v-192h-107q-29 0 -56 -14q-14 3 -29 3q-23 0 -52 -7.5t-52.5 -23
t-23.5 -35.5v-30h87q-2 -11 -2 -21.5zM192 405q-9 0 -15 -6t-6 -15t6 -15t15 -6t15 6t6 15t-6 15t-15 6zM192 320q-27 0 -45.5 -18.5t-18.5 -45.5q0 -26 19 -45t45 -19t45 19t19 45t-19 45t-45 19z" />
    <glyph glyph-name="route" unicode="route" horiz-adv-x="405" 
d="M64 352q26 0 44.5 -18.5t18.5 -45.5q0 -21 -16 -50.5t-32 -48.5l-15 -19q-8 8 -18.5 21t-28 44.5t-17.5 52.5q0 27 18.5 45.5t44.5 18.5h1zM63.5 266q9.5 0 16 6.5t6.5 15.5q0 5 -1.5 9t-4.5 7.5t-7.5 5t-8.5 1.5q-10 0 -16.5 -6.5t-6.5 -16t6.5 -16t16 -6.5zM384 207
q8 -5 14.5 -16t6.5 -21q0 -17 -12.5 -29.5t-30.5 -12.5t-30.5 12.5t-12.5 29.5q0 5 2 10.5t5 10.5t7 9.5t8 6.5v92q0 26 -18.5 45t-45.5 19q-25 0 -44 -18t-20 -44v-5v-40v-171v-21q0 -35 -25 -60t-60.5 -25t-60.5 25t-25 60v42h43v-41v0v-1q0 -17 12.5 -29.5t30 -12.5
t30 12.5t12.5 29.5v1v20v192v19v5q2 43 33 73t74 30q33 0 63 -22.5t39 -54.5q4 -14 5 -28v-92z" />
    <glyph glyph-name="sandbox" unicode="sandbox" horiz-adv-x="393" 
d="M118 256q0 9 6.5 15.5t15 6.5t15 -6.5t6.5 -15.5t-6.5 -15t-15 -6t-15 6t-6.5 15zM150 192q0 9 6.5 15.5t15 6.5t15 -6.5t6.5 -15.5t-6.5 -15t-15 -6t-15 6t-6.5 15zM86 192q0 6 3 11t8 8t11 3q8 0 14.5 -6.5t6.5 -15.5t-6.5 -15t-15 -6t-15 6t-6.5 15zM341 251l43 43
v-251q0 -18 -12.5 -30.5t-30.5 -12.5h-298q-18 0 -30.5 12.5t-12.5 30.5v298q0 18 12.5 30.5t30.5 12.5h251l-43 -43h-208v-213h85q0 -26 19 -45t45 -19t45 19t19 45h85v123zM299 233q5 -7 2.5 -14t-10.5 -11l-27 -16v0q0 15 -10.5 25.5t-24.5 10.5h-1q-6 0 -12 -3
q-4 9 -13.5 16t-18.5 9l25 41q4 8 11 10t13 -4l17 -16l-6 -6l31 -30l6 5zM275 245l-31 30l6 6l112 112l31 -30l-113 -113z" />
    <glyph glyph-name="science" unicode="science" horiz-adv-x="384" 
d="M334 -21h-285q-20 0 -34.5 14.5t-14.5 34.5q0 14 8 26l19 31l101 161v138h-43v43h214v-43h-43v-138l101 -161l19 -31q8 -12 8 -26q0 -20 -14.5 -34.5t-35.5 -14.5z" />
    <glyph glyph-name="scientist" unicode="scientist" horiz-adv-x="491" 
d="M170.5 85q31.5 0 69.5 -9t69.5 -29.5t31.5 -46.5v-64h-341v64q0 26 31.5 46.5t69.5 29.5t69.5 9zM85 192q0 35 25 60t60.5 25t60.5 -25t25 -60t-25 -60t-60.5 -25t-60.5 25t-25 60zM405 341q0 9 6.5 15.5t15.5 6.5t15 -6.5t6 -15.5t-6 -15t-15 -6t-15.5 6t-6.5 15z
M448 373.5q0 4.5 3 7.5t7.5 3t7.5 -3t3 -7.5t-3 -7.5t-7.5 -3t-7.5 3t-3 7.5zM427 416q0 4 3 7.5t7.5 3.5t7.5 -3.5t3 -7.5t-3 -7.5t-7.5 -3.5t-7.5 3.5t-3 7.5zM341 299h150v-22h-22v-213q0 -29 -14.5 -46.5t-38.5 -17.5t-38.5 18t-14.5 45v214h-22v22zM448 128v149h-64
v-21h21v-21h-21v-43h21v-21h-21v-43h21v-16h9q12 0 22 7z" />
    <glyph glyph-name="secret" unicode="secret" 
d="M384 245.5q0 -22.5 -15.5 -38t-37.5 -15.5t-38 15.5t-16 37.5q0 6 1 11h-44q1 -5 1 -11q0 -21 -15.5 -36t-37 -15t-36.5 15t-15 36.5t15 36.5t37 15q10 0 22 -5.5t19 -14.5h64q7 9 19.5 15.5t23.5 6.5q22 0 37.5 -15.5t15.5 -38zM427 341v-21h-342v21h64v64
q0 18 12.5 30.5t30.5 12.5h128q18 0 30.5 -12.5t12.5 -30.5v-64h64zM107 85l85 -85l-43 -43l22 -21h-171v64q0 35 25 60t60 25h22zM427 85q35 0 60 -25t25 -60v-64h-171l22 21l-43 43l85 85h22zM235 -64v85h42v-85h-42zM256 64l21 -43h-42z" />
    <glyph glyph-name="secure_data" unicode="secure_data" horiz-adv-x="469" 
d="M283 128h-155v-43h134q-6 -12 -6 -25v-18h-213q-12 0 -22 6t-15.5 16t-5.5 21v299q0 17 12.5 29.5t30.5 12.5h341q18 0 30.5 -12.5t12.5 -29.5v-180q-21 9 -43 9h-171v-43h86q-13 -19 -16 -42zM384 256v42h-171v-42h171zM128 384v-43h256v43h-256zM85 85v43h-43v-43h43z
M85 341v43h-43v-43h43zM128 298v-42h43v42h-43zM128 170h43v43h-43v-43zM444 85q5 0 9.5 -2.5t8 -6.5t5.5 -8.5t2 -10.5v-74q-1 -11 -9 -18.5t-18 -7.5h-118q-10 1 -17.5 9t-7.5 19v74q0 10 7.5 17.5t17.5 8.5v32q3 22 20.5 37.5t39.5 15.5q15 0 28 -7t21.5 -19t10.5 -27
v-32zM416 85v32q-1 12 -9.5 20t-19.5 8h-3h-3q-11 0 -19.5 -8t-9.5 -20v-32h64z" />
    <glyph glyph-name="service_instance" unicode="service_instance" horiz-adv-x="384" 
d="M0 0v64v64h22h21v-64v-64h-21h-22zM202 -21l-63 13l-62 14q-13 3 -13 15v86q0 5 4 10q3 4 9 5l102 13l102 14l3 -11l3 -12q0 -13 -12 -19l-42 -11l-43 -11l35 -14l34 -13l49 13l47 14q2 1 5 1q4 0 8 -2q6 -4 7 -10l4 -16l5 -17v-4q0 -12 -12 -15l-77 -21l-78 -22
q-4 -1 -8 -1h-2q-3 0 -5 1zM320 267l-74 -48l-75 -48v96v96l75 -48z" />
    <glyph glyph-name="service_plan" unicode="service_plan" horiz-adv-x="427" 
d="M107 405q8 0 14.5 -6t6.5 -15v-384q0 -6 -3 -11t-8 -7.5t-10 -2.5h-86q-8 0 -14.5 6t-6.5 15v384q0 9 6.5 15t14.5 6h86zM64 0q18 0 30.5 12.5t12.5 30t-12.5 30t-30.5 12.5t-30.5 -12.5t-12.5 -30t12.5 -30t30.5 -12.5zM107 192v192h-86v-192h86zM43 42.5q0 8.5 6 15
t15 6.5t15.5 -6.5t6.5 -15t-6.5 -15t-15.5 -6.5t-15 6.5t-6 15zM256 362v43h171v-43h-171zM171 362v43h43v-43h-43zM256 277v43h171v-43h-171zM171 277v43h43v-43h-43zM256 192v43h171v-43h-171zM171 192v43h43v-43h-43z" />
    <glyph glyph-name="service" unicode="service" horiz-adv-x="384" 
d="M0 0v64v64h21h22v-64v-64h-22h-21zM202 -21l-63 13l-62 15q-6 1 -9 6q-4 4 -4 9v1v85q0 6 3.5 10t9.5 6l102 12l102 13l3 -12l3 -12q0 -6 -3 -11t-8 -8l-43 -10l-43 -11l35 -14l35 -14l48 14l47 14q2 1 4 1q5 0 9 -2q6 -4 7 -10l4 -17l5 -16v-4q0 -4 -2 -8q-4 -5 -10 -7
l-77 -22l-78 -21h-4h-4h-5h-2zM128 363l15 -15l15 -15l-28 -28l-28 -28l28 -27l28 -28l-15 -15l-15 -15l-43 43l-42 42l42 43zM256 363l43 -43l42 -43l-42 -42l-43 -43l-15 15l-15 15l28 28l28 27l-28 28l-28 28l15 15z" />
    <glyph glyph-name="snapshot_rollback" unicode="snapshot_rollback" horiz-adv-x="427" 
d="M43 405h85v-42h-85v-86h-43v86q0 17 12.5 29.5t30.5 12.5zM299 405h85q18 0 30.5 -12.5t12.5 -29.5v-86h-43v86h-85v42zM299 -21v42h85v86h43v-86q0 -17 -12.5 -29.5t-30.5 -12.5h-85zM43 21h85v-42h-85q-18 0 -30.5 12.5t-12.5 29.5v86h43v-86zM221 245q38 0 73 -25.5
t47 -60.5l-30 -10q-9 27 -35.5 46t-54.5 19q-18 0 -39 -9.5t-33 -23.5l43 -42h-107v106l43 -41q16 17 43 29t50 12z" />
    <glyph glyph-name="software" unicode="software" horiz-adv-x="469" 
d="M277 57v-36h43v-42h-171v42h43v43h-149q-12 0 -22 5.5t-15.5 15.5t-5.5 22v256q0 17 12.5 29.5t30.5 12.5h384q17 0 29.5 -12.5t12.5 -29.5v-94q-16 27 -42 45v49h-384v-256h176q10 -14 27 -28.5t31 -21.5zM341 320q53 0 90.5 -37.5t37.5 -90.5t-37.5 -90.5t-90.5 -37.5
t-90.5 37.5t-37.5 90.5t37.5 90.5t90.5 37.5zM341.5 160q13.5 0 22.5 9.5t9 22.5t-9 22.5t-22.5 9.5t-23 -9.5t-9.5 -22.5t9.5 -22.5t23 -9.5z" />
    <glyph glyph-name="state" unicode="state" horiz-adv-x="363" 
d="M128 320h107v-256h-107v256zM213 171v128h-64v-128h64zM320 427q9 0 16.5 -3.5t13.5 -9.5t9.5 -13.5t3.5 -16.5v-384q0 -18 -12.5 -30.5t-30.5 -12.5h-277q-18 0 -30.5 12.5t-12.5 30.5v384q0 18 12.5 30.5t30.5 12.5h277zM320 0v384h-277v-384h277z" />
    <glyph glyph-name="stateful_set" unicode="stateful_set" horiz-adv-x="490" 
d="M128 64h277v-43h-277q-18 0 -30.5 12.5t-12.5 30.5v0v277h43v-277zM43 -21h277v-43h-277q-18 0 -30.5 12.5t-12.5 30.5v0v277h43v-277zM330 261v0h1q22 0 44 5q19 4 35 13v-71q0 -11 -21 -21q-27 -11 -55 -11h-3.5h-3.5q-28 0 -55 11q-22 10 -22 21v71q17 -9 36 -13
q21 -5 43 -5h1v0zM331 357h3q28 0 55 -11q21 -10 21 -21t-21 -21q-27 -11 -55 -11h-3v0h-1v0h-3q-28 0 -55 11q-22 10 -22 21t22 21q27 11 55 11h3v0h1v0zM448 427q17 0 29.5 -12.5t12.5 -30.5v-235q0 -11 -5.5 -21t-15.5 -15.5t-21 -5.5h-235q-18 0 -30.5 12.5t-12.5 29.5
v235q0 18 12.5 30.5t30.5 12.5h235zM442 324v1q-1 14 -10 27t-22 19q-35 18 -75 18h-5v0v0h-4q-40 0 -76 -18q-12 -6 -21.5 -19t-10.5 -27v-117q1 -13 10.5 -26.5t21.5 -19.5q36 -18 76 -18h4v0v0h1v0h4q40 0 75 18q13 6 22 19.5t10 26.5v116z" />
    <glyph glyph-name="storage_class" unicode="storage_class" horiz-adv-x="448" 
d="M427 363v-86h-427v86h427zM85 299v42h-42v-42h42zM397 132l51 -68l-51 -68q-12 -17 -32 -17h-2h-150q-9 0 -15 6t-6 15v128q0 9 6 15t15 6h150q21 0 34 -17zM213 192q-18 0 -36 -12.5t-24 -30.5h-153v86h427v-73q-11 12 -29.5 21t-34.5 9h-150zM43 171h42v42h-42v-42z
M149 107v-86h-149v86h149zM43 43h42v42h-42v-42z" />
    <glyph glyph-name="subscription_management" unicode="subscription_management" horiz-adv-x="427" 
d="M85 43h107v-86l-53 32l-54 -32v86zM384 427q18 0 30.5 -12.5t12.5 -30.5v-341q0 -18 -12.5 -30.5t-30.5 -12.5h-64v-43l-53 32l-54 -32v470h171zM256 341v-42h43v42h-43zM256 235v-43h43v43h-43zM256 128v-43h43v43h-43zM43 427h149v-43h-149v-384q-18 0 -30.5 12.5
t-12.5 30.5v341q0 18 12.5 30.5t30.5 12.5zM85 299v42h43v-42h-43zM85 192v43h43v-43h-43zM85 85v43h43v-43h-43z" />
    <glyph glyph-name="subscriptions_created" unicode="subscriptions_created" horiz-adv-x="427" 
d="M43 277v43h341v-43h-341zM86 362v43h256v-43h-256zM384 235q18 0 30.5 -12.5t12.5 -30.5v-171q0 -17 -12.5 -29.5t-30.5 -12.5h-341q-18 0 -30.5 12.5t-12.5 29.5v171q0 12 5.5 21.5t15.5 15.5t22 6h341zM177 21l143 142l-30 30l-113 -113l-40 40l-30 -30z" />
    <glyph glyph-name="symlink" unicode="symlink" horiz-adv-x="341" 
d="M213 405l128 -128v-256q0 -17 -12.5 -29.5t-29.5 -12.5h-256q-18 0 -30.5 12.5t-12.5 29.5v342q0 17 12.5 29.5t30.5 12.5h170zM192 33l85 79l-85 80v-45q-105 -15 -128 -126q43 58 128 58v-46zM192 256h118l-118 117v-117z" />
    <glyph glyph-name="system_group" unicode="system_group" horiz-adv-x="469" 
d="M341 427v-43h-298v-192h-43v192q0 18 12.5 30.5t30.5 12.5h298zM427 341q17 0 29.5 -12.5t12.5 -29.5v-214q0 -17 -12.5 -29.5t-29.5 -12.5h-118v-33h32v-31h-128v31h33v33h-118q-18 0 -30.5 12.5t-12.5 29.5v214q0 17 12.5 29.5t30.5 12.5h299zM427 85v214h-299v-214
h299z" />
    <glyph glyph-name="system_image" unicode="system_image" horiz-adv-x="320" 
d="M277 384l43 21v-384q0 -17 -12.5 -29.5t-30.5 -12.5h-234q-18 0 -30.5 12.5t-12.5 29.5v320q0 18 12.5 30.5t30.5 12.5h234zM43 320v-43h170v43h-170zM128 21v43h-43v-43h43zM128 149v-42h85v42h-85zM277 21v43h-128v-43h128zM277 107v42h-42v-42h42zM277 192v43h-106
v-43h106zM277 277v43h-42v-43h42z" />
    <glyph glyph-name="system_ok" unicode="system_ok" horiz-adv-x="469" 
d="M427 405q17 0 29.5 -12.5t12.5 -29.5v-256q0 -18 -12.5 -30.5t-29.5 -12.5h-150v-43h43v-42h-171v42h43v43h-149q-18 0 -30.5 12.5t-12.5 30.5v256q0 17 12.5 29.5t30.5 12.5h384zM208 156l155 155l-30 30l-125 -124l-71 71l-30 -30l101 -102v0z" />
    <glyph glyph-name="system_re_registered" unicode="system_re_registered" horiz-adv-x="469" 
d="M427 405q17 0 29.5 -12.5t12.5 -29.5v-256q0 -12 -5.5 -22t-15.5 -15.5t-21 -5.5h-150v-43h43v-42h-171v42h43v43h-149q-12 0 -22 5.5t-15.5 15.5t-5.5 22v256q0 17 12.5 29.5t30.5 12.5h384zM427 256v107h-384v-107h106v64l86 -85l-86 -86v64h-106v-106h384v106h-150v43
h150z" />
    <glyph glyph-name="system_warning" unicode="system_warning" horiz-adv-x="469" 
d="M427 405q17 0 29.5 -12.5t12.5 -29.5v-256q0 -12 -5.5 -22t-15.5 -15.5t-21 -5.5h-150v-43h43v-42h-171v42h43v43h-149q-12 0 -22 5.5t-15.5 15.5t-5.5 22v256q0 17 12.5 29.5t30.5 12.5h384zM427 107v256h-384v-256h384zM214 128v43h42v-43h-42zM214 214v128h42v-128
h-42z" />
    <glyph glyph-name="templates" unicode="templates" horiz-adv-x="384" 
d="M341 405q12 0 22 -5.5t15.5 -15.5t5.5 -21v-342q0 -17 -12.5 -29.5t-30.5 -12.5h-298q-18 0 -30.5 12.5t-12.5 29.5v342q0 17 12.5 29.5t30.5 12.5h298zM341 167l-106 -60l106 -61v121zM192 131l107 61h-214zM43 363v-43h298v43h-298zM43 277v-42h170v42h-170zM149 107
l-106 61v-122zM192 82l-107 -61h214z" />
    <glyph glyph-name="terminal" unicode="terminal" horiz-adv-x="427" 
d="M384 341q18 0 30.5 -12.5t12.5 -29.5v-214q0 -17 -12.5 -29.5t-30.5 -12.5h-341q-18 0 -30.5 12.5t-12.5 29.5v214q0 17 12.5 29.5t30.5 12.5h341zM85 85l107 107l-107 107l-30 -30l77 -77l-77 -77zM363 85v43h-150v-43h150z" />
    <glyph glyph-name="test_tube" unicode="test_tube" horiz-adv-x="299" 
d="M149 213q0 6 3 11t8 8t11 3q9 0 15 -6.5t6 -15.5t-6 -15t-15 -6t-15.5 6t-6.5 15zM128 288q0 4 3 7.5t7.5 3.5t7.5 -3.5t3 -7.5t-3 -7.5t-7.5 -3.5t-7.5 3.5t-3 7.5zM149 330.5q0 4.5 3.5 7.5t7.5 3t7.5 -3t3.5 -7.5t-3.5 -7.5t-7.5 -3t-7.5 3t-3.5 7.5zM0 448h299v-43
h-43v-362q0 -44 -31.5 -75.5t-75.5 -31.5t-75 31.5t-31 75.5v362h-43v43zM213 405h-128v-277h22q0 9 6 15t15 6t15 -6t6 -15h64v277z" />
    <glyph glyph-name="timeout" unicode="timeout" horiz-adv-x="427" 
d="M123 337l-31 31q23 15 58.5 26t62.5 11q89 0 151.5 -62.5t62.5 -150.5q0 -27 -11 -62.5t-27 -58.5l-31 31q11 17 18.5 43.5t7.5 46.5q0 71 -50 121t-120 50q-14 0 -30.5 -3.5t-33 -9.5t-27.5 -13zM392 14l-28 -28l-30 30q-22 -15 -57.5 -26t-63.5 -11q-88 0 -150.5 62.5
t-62.5 150.5q0 27 11 62.5t27 58.5l-30 30l27 27l27 -27l31 -30l99 -100v86h32v-112l96 -57l-16 -27l-5 4zM303 47l-123 124l-111 111q-11 -17 -18.5 -43.5t-7.5 -46.5q0 -71 50 -121t120 -50q20 0 46.5 8t43.5 18z" />
    <glyph glyph-name="troubleshooting" unicode="troubleshooting" 
d="M491 213h21v-42h-44q-7 -72 -63 -128t-128 -63v-44h-42v44q-47 5 -89.5 32t-69.5 69.5t-32 89.5h-44v42h44q7 72 63 128t128 63v44h42v-44q36 -3 69.5 -20t59 -42.5t42.5 -59t20 -69.5h23zM293 213h51q-6 22 -25.5 41.5t-41.5 25.5v-51q10 -6 16 -16zM344 171h-51
q-6 -10 -16 -16v-51q22 6 41.5 25.5t25.5 41.5zM235 361q-55 -7 -98 -50t-50 -98h48q7 35 36 64t64 36v48zM219 213q6 10 16 16v51q-22 -6 -41.5 -25.5t-25.5 -41.5h51zM235 155q-10 6 -16 16h-51q6 -22 25.5 -41.5t41.5 -25.5v51zM87 171q7 -55 50 -98t98 -50v48
q-35 7 -64 36t-36 64h-48zM277 23q55 7 98 50t50 98h-48q-7 -35 -36 -64t-64 -36v-48zM377 213h48q-7 55 -50 98t-98 50v-48q35 -7 64 -36t36 -64z" />
    <glyph glyph-name="trusted_organization" unicode="trusted_organization" horiz-adv-x="299" 
d="M299 256q0 -21 -9 -45t-23.5 -45t-32.5 -33l65 -112l-48 -3l-26 -39l-74 128h-0.5h-1.5h-1l-74 -128l-26 40l-48 2l65 112q-27 19 -46 55t-19 68q0 62 44 105.5t105.5 43.5t105.5 -43.5t44 -105.5zM43 256q0 -44 31 -75.5t75 -31.5t75.5 31.5t31.5 75.5t-31.5 75.5
t-75.5 31.5t-75 -31.5t-31 -75.5zM85 256q0 27 19 45.5t45.5 18.5t45 -18.5t18.5 -45.5t-18.5 -45.5t-45 -18.5t-45.5 18.5t-19 45.5z" />
    <glyph glyph-name="virtual_guest" unicode="virtual_guest" horiz-adv-x="469" 
d="M427 405q17 0 29.5 -12.5t12.5 -29.5v-256q0 -12 -5.5 -22t-15.5 -15.5t-21 -5.5h-150v-43h43v-42h-171v42h43v43h-149q-12 0 -22 5.5t-15.5 15.5t-5.5 22v256q0 17 12.5 29.5t30.5 12.5h384zM427 107v256h-384v-256h384zM107 299q0 8 6 14.5t15 6.5h213q9 0 15.5 -6.5
t6.5 -14.5v-128q0 -9 -6.5 -15.5t-15.5 -6.5h-213q-9 0 -15 6.5t-6 15.5v128zM341 171v106h-213v-106h213z" />
    <glyph glyph-name="virtual_host_manager" unicode="virtual_host_manager" horiz-adv-x="426" 
d="M391 63q9 -1 17.5 -7.5t13 -15.5t4.5 -19v-1.5v-1.5q-2 -16 -14 -27.5t-29 -11.5q-10 0 -20.5 6t-15.5 15h-268q-5 -9 -15.5 -15t-20.5 -6h-7q-15 3 -25.5 15t-10.5 27q0 10 6 21t15 16v268q-8 6 -14.5 16.5t-6.5 20.5q0 18 12.5 30.5t30.5 12.5q15 0 27 -10.5t15 -24.5
l177 -32q5 10 16 17t22 7q18 0 30.5 -12.5t12.5 -30.5q0 -20 -17 -33zM80 41q3 -5 4 -9h258l1 1l-41 23q-15 -14 -35 -14q-22 0 -37.5 15t-16.5 36v1v2q0 14 7 26l-26 31q-10 -3 -21 -3q-7 0 -14 2l-82 -105q2 -3 3 -6zM277 284l-35 -29q6 -15 6 -30q0 -17 -10 -35.5
t-24 -27.5l21 -24q14 11 32 11q22 0 37.5 -15.5t15.5 -37.5v-2v-1q-1 -5 -2 -9l45 -26q2 2 5 3l-62 217h-7q-12 0 -22 6zM83 349l51 -61q18 11 39 11q15 0 31.5 -7.5t25.5 -18.5l32 27q-4 9 -4 18zM43 320v-256q9 0 17 -4l77 100q-10 5 -19 16t-14 24t-5 25q0 28 19 49
l-48 56q-11 -10 -27 -10z" />
    <glyph glyph-name="virtual_reality" unicode="virtual_reality" horiz-adv-x="469" 
d="M427 149v86h42v-86h-42zM0 149v86h43v-86h-43zM363 256q17 0 29.5 -12.5t12.5 -30.5v-42q0 -12 -5.5 -22t-15.5 -15.5t-21 -5.5q0 -18 -12.5 -30.5t-30.5 -12.5h-22l-34 60q-10 16 -29.5 16t-29.5 -16l-34 -60h-22q-17 0 -29.5 12.5t-12.5 30.5q-18 0 -30.5 12.5
t-12.5 30.5v42q0 18 12.5 30.5t30.5 12.5q0 18 12.5 30.5t29.5 12.5h171q9 0 16.5 -3.5t13.5 -9.5t9.5 -13.5t3.5 -16.5zM341 192v43h-213v-43h213z" />
    <glyph glyph-name="virtual_space" unicode="virtual_space" horiz-adv-x="427" 
d="M213.5 405q88.5 0 151 -62.5t62.5 -150.5t-62.5 -150.5t-151 -62.5t-151 62.5t-62.5 150.5t62.5 150.5t151 62.5zM213.5 21q70.5 0 120.5 50t50 121t-50 121t-120.5 50t-120.5 -50t-50 -121t50 -121t120.5 -50zM181 288q0 7 3 12.5t7 10t10 7t12 2.5q13 0 22.5 -9.5
t9.5 -22.5t-9.5 -22.5t-22.5 -9.5t-22.5 9.5t-9.5 22.5zM181 96q0 9 4.5 16t12 11.5t15.5 4.5q13 0 22.5 -9.5t9.5 -22.5t-9.5 -22.5t-22.5 -9.5t-22.5 9.5t-9.5 22.5zM277 192q0 13 9.5 22.5t22.5 9.5t22.5 -9.5t9.5 -22.5t-9.5 -22.5t-22.5 -9.5t-22.5 9.5t-9.5 22.5z
M85 192q0 13 9.5 22.5t22.5 9.5t22.5 -9.5t9.5 -22.5t-9.5 -22.5t-22.5 -9.5t-22.5 9.5t-9.5 22.5zM192 192q0 9 6 15t15 6t15.5 -6t6.5 -15t-6.5 -15t-15.5 -6q-5 0 -10 2.5t-8 7.5t-3 11z" />
    <glyph glyph-name="volume_binding" unicode="volume_binding" horiz-adv-x="427" 
d="M85 43q0 -22 8 -43h-50q-18 0 -30.5 12.5t-12.5 30.5v341q0 18 12.5 30.5t30.5 12.5h213q9 0 16.5 -3.5t13.5 -9.5t9.5 -13.5t3.5 -16.5v-213h-86q-53 0 -90.5 -37.5t-37.5 -90.5zM256 405q-9 0 -15 -6t-6 -15t6 -15t15 -6t15 6t6 15t-6 15t-15 6zM149 384q-44 0 -75 -31
t-31 -75q0 -23 9 -43h55v-55q20 -9 43 -9q44 0 75 31t31 75t-31 75.5t-75 31.5h-1zM43 405q-5 0 -9 -1.5t-6.5 -4.5t-4.5 -7t-2 -8q0 -9 6.5 -15t15 -6t15 6t6.5 15t-6.5 15t-14.5 6zM42.5 21q8.5 0 15 6.5t6.5 15t-6.5 15t-15 6.5t-15 -6.5t-6.5 -15t6.5 -15t15 -6.5z
M107 277.5q0 17.5 12.5 30t30 12.5t30 -12.5t12.5 -30t-12.5 -30t-30 -12.5t-30 12.5t-12.5 30zM235 21v43h85v-43h-85zM341 128q36 0 61 -25t25 -60.5t-25 -60.5t-61 -25h-42v43h42q18 0 30.5 12.5t12.5 30.5q0 11 -5.5 21t-15.5 15.5t-22 5.5h-42v43h42zM256 0v-43h-43
q-35 0 -60 25t-25 60.5t25 60.5t60 25h43v-43h-43q-11 0 -21 -5.5t-15.5 -15.5t-5.5 -21q0 -18 12.5 -30.5t29.5 -12.5h43z" />
    <glyph glyph-name="volume" unicode="volume" horiz-adv-x="299" 
d="M256 405q18 0 30.5 -12.5t12.5 -29.5v-342q0 -17 -12.5 -29.5t-30.5 -12.5h-213q-18 0 -30.5 12.5t-12.5 29.5v342q0 17 12.5 29.5t30.5 12.5h213zM42.5 384q-8.5 0 -15 -6.5t-6.5 -15t6.5 -15t15 -6.5t15 6.5t6.5 15t-6.5 15t-15 6.5zM42.5 0q8.5 0 15 6.5t6.5 15
t-6.5 15t-15 6.5t-15 -6.5t-6.5 -15t6.5 -15t15 -6.5zM149 149q45 0 76 31.5t31 75.5t-31 75.5t-75.5 31.5t-75.5 -31.5t-31 -75.5q0 -22 9 -43h55v-55q20 -9 42 -9zM256 0q9 0 15 6.5t6 15t-6 15t-15 6.5t-15 -6.5t-6 -15t6 -15t15 -6.5zM256 341q6 0 11 3t7.5 8t2.5 11
q0 8 -6 14.5t-15 6.5t-15 -6.5t-6 -15t6 -15t15 -6.5zM107 256q0 18 12.5 30.5t30 12.5t30 -12.5t12.5 -30.5t-12.5 -30.5t-30 -12.5t-30 12.5t-12.5 30.5z" />
    <glyph glyph-name="workload" unicode="workload" horiz-adv-x="427" 
d="M43 320v-299h298v-42h-298q-18 0 -30.5 12.5t-12.5 29.5v299h43zM171 192v43h170v-43h-170zM171 128v43h170v-43h-170zM245 342l24 -43l-24 -43h-50l-24 43l24 43h50zM384 405q18 0 30.5 -12.5t12.5 -29.5v-256q0 -12 -6 -22t-15.5 -15.5t-21.5 -5.5h-256
q-18 0 -30.5 12.5t-12.5 30.5v256q0 11 6 21t15.5 15.5t21.5 5.5h256zM384 107v256h-256v-256h256z" />
    <glyph glyph-name=".notdef" horiz-adv-x="187" 
d="M17 0v341h136v-341h-136zM34 17h102v307h-102v-307z" />
    <glyph glyph-name=".null" horiz-adv-x="0" 
 />
    <glyph glyph-name="nonmarkingreturn" horiz-adv-x="170" 
 />
    <glyph glyph-name="_" unicode="_" 
d="M0 0z" />
    <glyph glyph-name="a" unicode="a" 
d="M0 0z" />
    <glyph glyph-name="b" unicode="b" 
d="M0 0z" />
    <glyph glyph-name="c" unicode="c" 
d="M0 0z" />
    <glyph glyph-name="d" unicode="d" 
d="M0 0z" />
    <glyph glyph-name="e" unicode="e" 
d="M0 0z" />
    <glyph glyph-name="f" unicode="f" 
d="M0 0z" />
    <glyph glyph-name="g" unicode="g" 
d="M0 0z" />
    <glyph glyph-name="h" unicode="h" 
d="M0 0z" />
    <glyph glyph-name="i" unicode="i" 
d="M0 0z" />
    <glyph glyph-name="j" unicode="j" 
d="M0 0z" />
    <glyph glyph-name="k" unicode="k" 
d="M0 0z" />
    <glyph glyph-name="l" unicode="l" 
d="M0 0z" />
    <glyph glyph-name="m" unicode="m" 
d="M0 0z" />
    <glyph glyph-name="n" unicode="n" 
d="M0 0z" />
    <glyph glyph-name="o" unicode="o" 
d="M0 0z" />
    <glyph glyph-name="p" unicode="p" 
d="M0 0z" />
    <glyph glyph-name="q" unicode="q" 
d="M0 0z" />
    <glyph glyph-name="r" unicode="r" 
d="M0 0z" />
    <glyph glyph-name="s" unicode="s" 
d="M0 0z" />
    <glyph glyph-name="t" unicode="t" 
d="M0 0z" />
    <glyph glyph-name="u" unicode="u" 
d="M0 0z" />
    <glyph glyph-name="v" unicode="v" 
d="M0 0z" />
    <glyph glyph-name="w" unicode="w" 
d="M0 0z" />
    <glyph glyph-name="x" unicode="x" 
d="M0 0z" />
    <glyph glyph-name="y" unicode="y" 
d="M0 0z" />
    <glyph glyph-name="z" unicode="z" 
d="M0 0z" />
  </font>
</defs>
</svg>
